<svg width="599" height="342" fill="none" xmlns="http://www.w3.org/2000/svg"><mask id="a" maskUnits="userSpaceOnUse" x="0" y="0" width="571" height="342"><path fill-rule="evenodd" clip-rule="evenodd" d="M302.468 2.24c66.306-6.02 140.205-.483 192.022 23.697 50.797 23.705 64.664 63.752 74.361 100.611 8.413 31.982-9.671 62.302-23.241 93.711-14.895 34.473-12.13 75.085-59.682 98.214-48.424 23.553-119.663 18.661-183.46 20.049-66.624 1.449-141.952 11.748-193.998-11.839-51.75-23.452-43.748-67.99-61.815-104.094C29.496 188.3-15.581 154.504 5.506 120.924c21.014-33.465 93.77-43.271 145.025-63.756C200.853 37.056 241.644 7.762 302.468 2.24z" fill="#C4C4C4"/></mask><g mask="url(#a)" stroke="#E9EBEE" stroke-width="2"><path d="M292.341-82.138l-821.03 422.164m831.082-421.12l-821.03 422.163M312.444-80.049l-821.03 422.164M322.495-79.003l-821.03 422.164M332.546-77.957l-821.03 422.163M342.597-76.913l-821.03 422.164M352.648-75.867l-821.03 422.164m831.08-421.118l-821.029 422.164M372.75-73.775l-821.03 422.163M382.801-72.73l-821.03 422.164m831.08-421.118l-821.03 422.164M402.904-70.639l-821.03 422.164m831.08-421.119l-821.03 422.164M423.005-68.548l-821.03 422.164M433.056-67.503l-821.03 422.164M443.107-66.457l-821.03 422.164m831.08-421.118l-821.029 422.163m831.08-421.117l-821.03 422.163M473.259-63.32l-821.03 422.164M483.312-62.274l-821.03 422.164M493.363-61.229l-821.03 422.164m831.08-421.118l-821.03 422.164M513.464-59.138l-821.03 422.164M523.515-58.092l-821.03 422.163M533.566-57.047l-821.03 422.164m831.08-421.118l-821.03 422.163M553.667-54.956l-821.03 422.164M563.718-53.91l-821.03 422.164M573.769-52.864L-247.261 369.3M583.82-51.819l-821.03 422.164M593.872-50.773l-821.03 422.163M603.923-49.728l-821.03 422.164M613.974-48.682l-821.03 422.163M624.025-47.636l-821.03 422.164m831.08-421.119l-821.03 422.164M644.126-45.545l-821.03 422.163M654.177-44.5l-821.03 422.164M664.228-43.455l-821.03 422.164M674.281-42.409l-821.03 422.164m831.08-421.118L-136.699 380.8M694.382-40.318l-821.03 422.164M704.433-39.273l-821.03 422.164M714.484-38.227l-821.03 422.164m831.08-421.118l-821.03 422.164M734.585-36.135L-86.445 386.03M744.636-35.09l-821.03 422.164M754.687-34.045L-66.343 388.12M764.738-32.999l-821.03 422.164M774.79-31.953L-46.24 390.21M784.841-30.907l-821.03 422.163M794.892-29.863l-821.03 422.164M804.943-28.816l-821.03 422.163m831.08-421.119L-6.037 394.392M825.044-26.726L4.014 395.438M835.095-25.68L14.065 396.483M845.146-24.634L24.116 397.529M855.198-23.59L34.168 398.575M865.249-22.544L44.219 399.62M875.3-21.498L54.27 400.666M885.351-20.453L64.321 401.711M895.402-19.406L74.372 402.757m831.08-421.118L84.422 403.802M915.503-17.316L94.473 404.849M925.554-16.27l-821.03 422.164M935.605-15.224L114.575 406.94M945.656-14.179l-821.03 422.164m831.08-421.118L134.676 409.03M965.759-12.088l-821.03 422.164M975.81-11.042L154.78 411.12M985.861-9.996l-821.03 422.164M995.911-8.95l-821.03 422.163M1005.96-7.906L184.932 414.258M1016.01-6.86L194.983 415.305M1026.06-5.814L205.034 416.35M1036.11-4.769L215.085 417.395M1046.17-3.723L225.135 418.44M1056.22-2.678L235.188 419.486M1066.27-1.632L245.239 420.53M1076.32-.587L255.29 421.577M1086.37.46L265.34 422.622M1096.42 1.505L275.391 423.669M1106.47 2.55L285.442 424.715M1116.52 3.595L295.493 425.76M1126.58 4.641L305.545 426.805M1136.63 5.687L315.596 427.851M1146.68 6.732L325.647 428.896M1156.73 7.778L335.698 429.942M1166.78 8.823L345.749 430.986M1176.83 9.869L355.799 432.033"/></g><rect x="34" y="221" width="104" height="37" rx="3" fill="#B2C8FE"/><path d="M57.493 237.783h1.768c-.025-1.556-1.304-2.63-3.247-2.63-1.913 0-3.315 1.057-3.307 2.642-.004 1.287.904 2.025 2.378 2.378l.95.239c.95.23 1.48.503 1.484 1.091-.005.639-.61 1.074-1.547 1.074-.96 0-1.65-.443-1.71-1.317h-1.785c.047 1.888 1.398 2.864 3.516 2.864 2.13 0 3.383-1.019 3.388-2.617-.005-1.453-1.1-2.224-2.617-2.565l-.784-.188c-.758-.174-1.393-.456-1.38-1.082 0-.563.498-.976 1.401-.976.883 0 1.424.401 1.492 1.087zm3.156-.989h2.672V244h1.824v-7.206h2.672v-1.521h-7.168v1.521zM69.357 244h1.846v-3.094h1.346L74.203 244h2.037l-1.854-3.392c.993-.426 1.543-1.291 1.543-2.484 0-1.735-1.147-2.851-3.128-2.851h-3.444V244zm1.846-4.577v-2.642h1.244c1.065 0 1.58.473 1.58 1.343 0 .865-.515 1.299-1.572 1.299h-1.252zM79.097 244l.647-1.99h3.15l.647 1.99h1.978l-3.009-8.727h-2.378L77.12 244h1.978zm1.116-3.43l1.074-3.303h.068l1.074 3.303h-2.216zm5.306-3.776h2.671V244h1.824v-7.206h2.672v-1.521h-7.168v1.521zM94.226 244h5.898v-1.521h-4.052v-2.084h3.733v-1.521h-3.733v-2.08h4.035v-1.521h-5.88V244zm13.495-5.906h1.875c-.239-1.726-1.76-2.941-3.733-2.941-2.305 0-4.082 1.662-4.082 4.492 0 2.761 1.662 4.474 4.12 4.474 2.204 0 3.776-1.393 3.776-3.69v-1.099h-3.652v1.389h1.875c-.026 1.082-.763 1.768-1.99 1.768-1.385 0-2.259-1.035-2.259-2.859 0-1.816.908-2.842 2.242-2.842.95 0 1.594.49 1.828 1.308zm2.839-2.821l3.183 5.642V244h1.833v-3.085l3.183-5.642h-2.067l-1.99 3.758h-.085l-1.99-3.758h-2.067z" fill="#fff"/><rect x="346" y="29" width="115" height="37" rx="3" fill="#B2C8FE"/><path d="M364.759 52h5.586v-1.521h-3.741v-7.206h-1.845V52zm7.168 0h5.898v-1.521h-4.053v-2.084h3.733v-1.521h-3.733v-2.08h4.036v-1.521h-5.881V52zm9.212 0l.648-1.99h3.149l.648 1.99h1.977l-3.009-8.727h-2.377L379.162 52h1.977zm1.117-3.43l1.073-3.303h.069l1.073 3.303h-2.215zm9.809 3.43c2.659 0 4.27-1.645 4.27-4.372 0-2.719-1.611-4.355-4.244-4.355h-3.12V52h3.094zm-1.248-1.581v-5.565h1.176c1.636 0 2.501.835 2.501 2.774 0 1.947-.865 2.791-2.506 2.791h-1.171zM398.062 52h5.898v-1.521h-4.053v-2.084h3.733v-1.521h-3.733v-2.08h4.035v-1.521h-5.88V52zm7.707 0h1.846v-3.094h1.346L410.615 52h2.037l-1.854-3.392c.993-.426 1.542-1.291 1.542-2.484 0-1.735-1.146-2.851-3.127-2.851h-3.444V52zm1.846-4.577v-2.642h1.244c1.065 0 1.581.473 1.581 1.343 0 .865-.516 1.3-1.573 1.3h-1.252zm11.124-1.64h1.768c-.025-1.556-1.304-2.63-3.247-2.63-1.913 0-3.315 1.057-3.307 2.642-.004 1.287.904 2.025 2.378 2.378l.95.239c.951.23 1.479.503 1.483 1.09-.004.64-.609 1.075-1.546 1.075-.959 0-1.65-.444-1.709-1.317h-1.786c.047 1.888 1.398 2.864 3.516 2.864 2.131 0 3.383-1.019 3.388-2.617-.005-1.453-1.1-2.224-2.617-2.565l-.784-.188c-.758-.174-1.393-.456-1.381-1.082 0-.563.499-.976 1.402-.976.882 0 1.424.4 1.492 1.087zM422.228 52h1.845v-3.605h3.746V52h1.841v-8.727h-1.841v3.6h-3.746v-3.6h-1.845V52zm11.158-8.727h-1.845V52h1.845v-8.727zM435.264 52h1.845v-2.83h1.551c2.008 0 3.175-1.197 3.175-2.94 0-1.734-1.146-2.957-3.128-2.957h-3.443V52zm1.845-4.308v-2.91h1.245c1.065 0 1.581.579 1.581 1.448 0 .865-.516 1.462-1.573 1.462h-1.253z" fill="#fff"/><rect x="461" y="173" width="138" height="37" rx="3" fill="#B2C8FE"/><path d="M485.545 190.094h1.875c-.238-1.726-1.759-2.941-3.732-2.941-2.306 0-4.083 1.662-4.083 4.492 0 2.761 1.662 4.474 4.121 4.474 2.203 0 3.775-1.393 3.775-3.69v-1.099h-3.652v1.389h1.875c-.025 1.082-.762 1.768-1.99 1.768-1.385 0-2.258-1.035-2.258-2.859 0-1.816.908-2.842 2.241-2.842.951 0 1.594.49 1.828 1.308zm11.722 1.542c0-2.855-1.772-4.483-4.086-4.483-2.327 0-4.087 1.628-4.087 4.483 0 2.843 1.76 4.483 4.087 4.483 2.314 0 4.086-1.628 4.086-4.483zm-1.87 0c0 1.85-.878 2.851-2.216 2.851-1.343 0-2.216-1.001-2.216-2.851 0-1.849.873-2.85 2.216-2.85 1.338 0 2.216 1.001 2.216 2.85zm7.641-.72h-3.98v1.441h3.98v-1.441zm1.257-2.122h2.672V196h1.824v-7.206h2.672v-1.521h-7.168v1.521zm16.341 2.842c0-2.855-1.772-4.483-4.086-4.483-2.327 0-4.087 1.628-4.087 4.483 0 2.843 1.76 4.483 4.087 4.483 2.314 0 4.086-1.628 4.086-4.483zm-1.87 0c0 1.85-.878 2.851-2.216 2.851-1.343 0-2.216-1.001-2.216-2.851 0-1.849.873-2.85 2.216-2.85 1.338 0 2.216 1.001 2.216 2.85zm7.641-.72h-3.98v1.441h3.98v-1.441zm1.941-3.643V196h1.79v-5.702h.072l2.259 5.659h1.219l2.258-5.637h.073V196h1.789v-8.727h-2.275l-2.404 5.863h-.102l-2.403-5.863h-2.276zM541.193 196l.648-1.99h3.149l.648 1.99h1.977l-3.009-8.727h-2.378L539.216 196h1.977zm1.116-3.43l1.074-3.303h.068l1.074 3.303h-2.216zm6.716 3.43h1.845v-3.094h1.347L553.87 196h2.037l-1.853-3.392c.993-.426 1.542-1.291 1.542-2.484 0-1.735-1.146-2.851-3.128-2.851h-3.443V196zm1.845-4.577v-2.642h1.245c1.065 0 1.581.473 1.581 1.343 0 .865-.516 1.299-1.573 1.299h-1.253zm6.39 4.577h1.845v-2.48l.908-1.108 2.391 3.588h2.207l-3.277-4.82 3.239-3.907h-2.212l-3.141 3.848h-.115v-3.848h-1.845V196zm8.634 0h5.897v-1.521h-4.052v-2.084h3.733v-1.521h-3.733v-2.08h4.035v-1.521h-5.88V196zm7.375-7.206h2.672V196h1.824v-7.206h2.672v-1.521h-7.168v1.521z" fill="#fff"/><rect x="291" y="267" width="109" height="37" rx="3" fill="#B2C8FE"/><path d="M311.263 290l.648-1.99h3.149l.647 1.99h1.978l-3.009-8.727h-2.378L309.286 290h1.977zm1.116-3.43l1.074-3.303h.068l1.074 3.303h-2.216zm14.016-5.297h-1.837v5.488h-.077l-3.767-5.488h-1.619V290h1.845v-5.493h.064l3.797 5.493h1.594v-8.727zm3.389 8.727l.647-1.99h3.149l.648 1.99h1.977l-3.008-8.727h-2.378L327.806 290h1.978zm1.116-3.43l1.074-3.303h.068l1.074 3.303H330.9zm6.716 3.43h5.587v-1.521h-3.742v-7.206h-1.845V290zm5.544-8.727l3.183 5.642V290h1.832v-3.085l3.184-5.642h-2.067l-1.99 3.758h-.085l-1.99-3.758h-2.067zm9.785 1.521h2.672V290h1.824v-7.206h2.671v-1.521h-7.167v1.521zm10.553-1.521h-1.845V290h1.845v-8.727zm9.578 3.055c-.242-2.016-1.768-3.175-3.788-3.175-2.305 0-4.065 1.628-4.065 4.483 0 2.847 1.73 4.483 4.065 4.483 2.237 0 3.588-1.487 3.788-3.093l-1.866-.009c-.175.933-.908 1.47-1.892 1.47-1.325 0-2.224-.984-2.224-2.851 0-1.815.886-2.85 2.237-2.85 1.01 0 1.738.583 1.879 1.542h1.866zm6.418-.545h1.768c-.025-1.556-1.304-2.63-3.247-2.63-1.913 0-3.315 1.057-3.307 2.642-.004 1.287.904 2.025 2.378 2.378l.951.239c.95.23 1.478.503 1.483 1.091-.005.639-.61 1.074-1.547 1.074-.959 0-1.649-.443-1.709-1.317h-1.786c.047 1.888 1.398 2.864 3.516 2.864 2.131 0 3.384-1.019 3.388-2.617-.004-1.453-1.1-2.224-2.617-2.565l-.784-.188c-.758-.174-1.393-.456-1.38-1.082 0-.563.498-.976 1.402-.976.882 0 1.423.401 1.491 1.087z" fill="#fff"/><g filter="url(#filter0_d)"><rect x="71" y="48" width="222" height="125" rx="10" fill="#fff"/><rect x="71.5" y="48.5" width="221" height="124" rx="9.5" stroke="#DAE3F9"/></g><path fill="#F3F3F3" d="M104 80h156v13.099H104zm0 24.451h156v13.099H104zm0 24.45h156V142H104z"/><g filter="url(#filter1_d)"><rect x="231" y="124" width="173" height="97" rx="10" fill="#fff"/><rect x="231.5" y="124.5" width="172" height="96" rx="9.5" stroke="#DAE3F9"/></g><path fill="#F3F3F3" d="M261 149h114v10.289H261zm0 19.205h114v10.289H261zm0 19.205h114v10.289H261z"/><path d="M61.284 58h10.91v-7.432c0-5.352 1.772-9.545 4.329-13.568l-6.41-3.784c-4.738 3.852-8.829 11.182-8.829 17.42V58zM78.5 58h10.91v-7.432c0-5.352 1.772-9.545 4.329-13.568l-6.41-3.784c-4.738 3.852-8.829 11.182-8.829 17.42V58z" fill="#EEBC46"/><path d="M221.284 135h10.909v-7.432c0-5.352 1.773-9.545 4.33-13.568l-6.409-3.784c-4.739 3.852-8.83 11.182-8.83 17.42V135zm17.216 0h10.909v-7.432c0-5.352 1.773-9.545 4.33-13.568l-6.409-3.784c-4.739 3.852-8.83 11.182-8.83 17.42V135z" fill="#6846EE"/><defs><filter id="filter0_d" x="41" y="29" width="282" height="185" filterUnits="userSpaceOnUse" color-interpolation-filters="sRGB"><feFlood flood-opacity="0" result="BackgroundImageFix"/><feColorMatrix in="SourceAlpha" values="0 0 0 0 0 0 0 0 0 0 0 0 0 0 0 0 0 0 127 0"/><feOffset dy="11"/><feGaussianBlur stdDeviation="15"/><feColorMatrix values="0 0 0 0 0.603056 0 0 0 0 0.630668 0 0 0 0 0.695833 0 0 0 0.1 0"/><feBlend in2="BackgroundImageFix" result="effect1_dropShadow"/><feBlend in="SourceGraphic" in2="effect1_dropShadow" result="shape"/></filter><filter id="filter1_d" x="201" y="105" width="233" height="157" filterUnits="userSpaceOnUse" color-interpolation-filters="sRGB"><feFlood flood-opacity="0" result="BackgroundImageFix"/><feColorMatrix in="SourceAlpha" values="0 0 0 0 0 0 0 0 0 0 0 0 0 0 0 0 0 0 127 0"/><feOffset dy="11"/><feGaussianBlur stdDeviation="15"/><feColorMatrix values="0 0 0 0 0.603056 0 0 0 0 0.630668 0 0 0 0 0.695833 0 0 0 0.1 0"/><feBlend in2="BackgroundImageFix" result="effect1_dropShadow"/><feBlend in="SourceGraphic" in2="effect1_dropShadow" result="shape"/></filter></defs></svg>