<svg width="117" height="40" fill="none" xmlns="http://www.w3.org/2000/svg"><path d="M46.442 7.78v19.737l2.54.02v-9.404h6.127V15.65h-6.127v-5.39h7.97V7.78h-10.51zm15.085 4.013c.911 0 1.667-.737 1.667-1.668 0-.93-.736-1.667-1.667-1.667-.911 0-1.668.737-1.668 1.667 0 .931.737 1.668 1.668 1.668zm-1.3 2.482v13.261h2.54V14.274h-2.54zm11.964-.388c-3.374 0-5.72 2.85-5.72 6.243 0 3.393 2.346 6.243 5.72 6.243 1.55 0 2.811-.582 3.742-1.57v1.764c.02 2.191-1.726 4.014-3.936 4.033h-.039c-.814 0-1.61-.31-2.25-.756l-1.279 2.21a6.492 6.492 0 008.997-1.939 6.596 6.596 0 001.047-3.548V14.294h-2.54v1.183c-.93-.99-2.191-1.59-3.742-1.59zm-3.18 6.243c0-2.113 1.61-3.761 3.47-3.761 1.862 0 3.452 1.667 3.452 3.761 0 2.113-1.61 3.742-3.452 3.742-1.86 0-3.47-1.648-3.47-3.742zm18.613-3.761a2.747 2.747 0 00-2.714 2.772v8.376h-2.54V14.255h2.54v1.222a3.997 3.997 0 013.276-1.59c1.784 0 3.16.872 3.936 2.23a4.873 4.873 0 014.033-2.23c2.89 0 4.692 2.326 4.692 5.215v8.415h-2.52v-8.376c0-1.512-1.202-2.753-2.715-2.772a2.747 2.747 0 00-2.714 2.772v8.376h-2.56v-8.376c0-1.512-1.201-2.753-2.714-2.772zm26.757-.601a6.094 6.094 0 00-4.479-1.881c-3.781 0-6.457 3.199-6.457 7 0 3.819 2.676 6.998 6.457 6.998a6.28 6.28 0 004.479-1.88v1.512h2.54V14.255h-2.54v1.512zm-8.396 5.118c0-2.52 1.939-4.537 4.208-4.537 2.249.02 4.188 2.017 4.188 4.537s-1.939 4.518-4.208 4.518c-2.229.02-4.188-1.978-4.188-4.518z" fill="#000"/><path d="M13.636 20.013a6.537 6.537 0 016.534-6.534 6.537 6.537 0 016.534 6.534 6.537 6.537 0 01-6.534 6.534 6.537 6.537 0 01-6.534-6.534z" fill="#1ABCFE"/><path d="M.588 33.062a6.537 6.537 0 016.534-6.534h6.534v6.534a6.537 6.537 0 01-6.534 6.534 6.537 6.537 0 01-6.534-6.534z" fill="#0ACF83"/><path d="M13.636.43v13.05h6.534a6.537 6.537 0 006.534-6.535A6.537 6.537 0 0020.17.411h-6.534v.02z" fill="#FF7262"/><path d="M.588 6.965a6.537 6.537 0 006.534 6.534h6.534V.45H7.122C3.516.43.588 3.358.588 6.965z" fill="#F24E1E"/><path d="M.588 20.014a6.537 6.537 0 006.534 6.534h6.534v-13.05H7.122C3.516 13.48.588 16.409.588 20.015z" fill="#A259FF"/></svg>