<svg width="117" height="41" fill="none" xmlns="http://www.w3.org/2000/svg"><g clip-path="url(#clip0)"><path d="M49.443 20.525c0 5.552-4.26 9.643-9.489 9.643-5.228 0-9.489-4.091-9.489-9.643 0-5.592 4.26-9.644 9.49-9.644 5.228 0 9.488 4.052 9.488 9.644zm-4.154 0c0-3.47-2.469-5.844-5.335-5.844s-5.335 2.374-5.335 5.844c0 3.434 2.47 5.843 5.335 5.843 2.866 0 5.335-2.413 5.335-5.843z" fill="#EA4335"/><path d="M69.913 20.525c0 5.552-4.26 9.643-9.488 9.643-5.229 0-9.49-4.091-9.49-9.643 0-5.587 4.261-9.644 9.49-9.644 5.228 0 9.489 4.052 9.489 9.644zm-4.153 0c0-3.47-2.47-5.844-5.336-5.844-2.865 0-5.335 2.374-5.335 5.844 0 3.434 2.47 5.843 5.336 5.843 2.865 0 5.335-2.413 5.335-5.843z" fill="#FBBC05"/><path d="M89.531 11.464v17.313c0 7.121-4.12 10.03-8.99 10.03-4.584 0-7.343-3.126-8.384-5.682l3.617-1.535c.644 1.57 2.222 3.421 4.763 3.421 3.118 0 5.05-1.96 5.05-5.652v-1.387h-.145c-.93 1.17-2.721 2.192-4.981 2.192-4.73 0-9.063-4.2-9.063-9.605 0-5.443 4.333-9.678 9.063-9.678 2.255 0 4.047 1.022 4.98 2.157h.146v-1.57h3.944v-.004zm-3.65 9.095c0-3.395-2.222-5.878-5.05-5.878-2.865 0-5.266 2.483-5.266 5.878 0 3.361 2.4 5.81 5.267 5.81 2.827 0 5.049-2.449 5.049-5.81z" fill="#4285F4"/><path d="M96.035 1.316v28.26h-4.052V1.317h4.052z" fill="#34A853"/><path d="M111.823 23.698l3.224 2.192c-1.04 1.57-3.548 4.274-7.881 4.274-5.374 0-9.387-4.235-9.387-9.644 0-5.735 4.048-9.643 8.922-9.643 4.909 0 7.31 3.982 8.094 6.135l.431 1.095-12.645 5.34c.968 1.934 2.474 2.921 4.585 2.921 2.115 0 3.582-1.06 4.657-2.67zm-9.924-3.47l8.453-3.577c-.465-1.205-1.864-2.044-3.51-2.044-2.111 0-5.05 1.9-4.943 5.622z" fill="#EA4335"/><path d="M15.13 18.016v-4.091h13.523c.132.713.2 1.556.2 2.47 0 3.069-.823 6.864-3.475 9.569-2.58 2.739-5.877 4.2-10.244 4.2C7.039 30.164.233 23.442.233 15.19.233 6.938 7.039.216 15.133.216c4.479 0 7.669 1.791 10.066 4.126l-2.832 2.887c-1.719-1.644-4.047-2.922-7.238-2.922-5.91 0-10.533 4.857-10.533 10.883 0 6.026 4.623 10.882 10.534 10.882 3.833 0 6.017-1.57 7.416-2.995 1.134-1.157 1.88-2.809 2.175-5.066l-9.591.005z" fill="#4285F4"/></g><defs><clipPath id="clip0"><path fill="#fff" transform="translate(.08 .011)" d="M0 0h116v40H0z"/></clipPath></defs></svg>