<svg width="117" height="33" fill="none" xmlns="http://www.w3.org/2000/svg"><g clip-path="url(#clip0)"><path d="M12.641 5.119v9.09H4.123v-9.09H.08v21.698h4.044v-8.795h8.518v8.795h4.044V5.12h-4.044zm16.987 14.684c0 .87-.353 1.704-.98 2.319a3.38 3.38 0 01-2.366.96 3.38 3.38 0 01-2.366-.96 3.246 3.246 0 01-.98-2.319v-9.294h-3.835v9.294c0 1.865.756 3.653 2.101 4.972a7.25 7.25 0 005.073 2.06 7.25 7.25 0 005.074-2.06 6.961 6.961 0 002.101-4.972v-9.294h-3.822v9.294zm28.422-8.336c0-1.905 1.285-2.51 2.694-2.51 1.136 0 2.636.847 3.616 1.875l2.513-2.902c-1.255-1.662-3.799-2.811-5.881-2.811-4.161 0-7.17 2.388-7.17 6.348 0 7.346 9.161 5.015 9.161 9.126 0 1.268-1.256 2.389-2.694 2.389-2.27 0-3.004-1.088-4.047-2.237l-2.787 2.84c1.783 2.147 3.982 3.236 6.617 3.236 3.953 0 7.134-2.418 7.134-6.197 0-8.155-9.162-5.621-9.162-9.157m56.685 11.884c-2.266 0-2.91-.961-2.91-2.433v-6.515h3.523v-3.301h-3.523V6.746l-3.89 1.71v13.272c0 3.394 2.39 5.105 5.667 5.105a8.005 8.005 0 001.534-.12l.949-3.424c-.428.029-.92.058-1.35.058m-70.5-12.729c-1.9 0-3.226.54-4.508 1.773V5.249h-3.842v13.238c0 4.955 3.656 8.35 7.763 8.35 4.557 0 8.566-3.455 8.566-8.108 0-4.594-3.69-8.109-7.98-8.109v-.002zm-.024 12.43a4.42 4.42 0 01-2.422-.72 4.293 4.293 0 01-1.605-1.917 4.193 4.193 0 01-.248-2.469 4.246 4.246 0 011.193-2.187 4.386 4.386 0 012.231-1.17 4.442 4.442 0 012.519.244c.797.323 1.477.87 1.956 1.573.48.703.735 1.529.735 2.374a4.23 4.23 0 01-1.277 3.02 4.405 4.405 0 01-3.082 1.252zm41.74-4.517c0-4.66-4-8.107-8.565-8.107-4.108 0-7.763 3.394-7.763 8.35v13.245h3.842v-7.152c1.28 1.232 2.607 1.773 4.505 1.773 4.29 0 7.98-3.512 7.98-8.109h.001zm-3.637-.046c0 .845-.256 1.67-.735 2.373a4.341 4.341 0 01-1.956 1.573 4.44 4.44 0 01-2.519.243 4.386 4.386 0 01-2.232-1.169 4.246 4.246 0 01-1.193-2.187 4.193 4.193 0 01.248-2.468 4.295 4.295 0 011.606-1.918 4.427 4.427 0 015.504.532 4.23 4.23 0 011.277 3.02z" fill="#33475B"/><path d="M98.32 10.364V6.62a2.924 2.924 0 001.232-1.058c.3-.46.461-.995.464-1.54v-.088a2.863 2.863 0 00-.863-2.034 2.977 2.977 0 00-2.076-.846h-.09a2.977 2.977 0 00-2.075.846c-.55.54-.86 1.27-.863 2.034v.087a2.84 2.84 0 00.464 1.54c.3.46.728.828 1.233 1.059v3.744a8.417 8.417 0 00-3.963 1.708l-10.49-7.998a3.13 3.13 0 00.119-.81c0-.642-.193-1.27-.556-1.805A3.301 3.301 0 0079.369.26a3.378 3.378 0 00-1.915-.187 3.337 3.337 0 00-1.698.887 3.23 3.23 0 00-.91 1.663 3.189 3.189 0 00.187 1.877 3.26 3.26 0 001.22 1.46 3.33 3.33 0 003.48.113l10.312 7.867a8.072 8.072 0 00-1.39 4.638 8.08 8.08 0 001.519 4.598l-3.139 3.076a2.748 2.748 0 00-.778-.124c-.54 0-1.066.156-1.514.45-.448.293-.797.71-1.003 1.198a2.62 2.62 0 00-.155 1.543c.105.518.364.993.745 1.367a2.776 2.776 0 002.969.579 2.714 2.714 0 001.223-.984c.3-.439.459-.955.459-1.483a2.577 2.577 0 00-.127-.763l3.105-3.043a8.453 8.453 0 003.441 1.525 8.537 8.537 0 003.775-.112 8.428 8.428 0 003.341-1.727 8.212 8.212 0 002.226-2.99 8.07 8.07 0 00.659-3.645 8.096 8.096 0 00-1.043-3.557 8.274 8.274 0 00-2.532-2.747 8.473 8.473 0 00-3.506-1.375zm-1.286 12.315c-.85 0-1.68-.247-2.387-.71a4.23 4.23 0 01-1.582-1.889 4.132 4.132 0 01-.245-2.432 4.184 4.184 0 011.176-2.156c.6-.589 1.366-.99 2.2-1.152a4.378 4.378 0 012.481.24 4.276 4.276 0 011.928 1.55 4.15 4.15 0 01.724 2.339 4.166 4.166 0 01-1.258 2.977 4.34 4.34 0 01-3.037 1.233z" fill="#FF7A59"/></g><defs><clipPath id="clip0"><path fill="#fff" transform="translate(.08 .011)" d="M0 0h116v32H0z"/></clipPath></defs></svg>