<svg width="58" height="23" fill="none" xmlns="http://www.w3.org/2000/svg"><path d="M1.232 17a.639.639 0 01-.432-.168.639.639 0 01-.168-.432V.8C.632.624.688.48.8.368A.639.639 0 011.232.2h3.36c.176 0 .32.056.432.168A.585.585 0 015.192.8v12.432h7.2c.176 0 .32.064.432.192a.548.548 0 01.192.432V16.4c0 .176-.064.32-.192.432a.585.585 0 01-.432.168H1.232zm19.433.24c-2.016 0-3.568-.464-4.656-1.392-1.072-.944-1.656-2.28-1.752-4.008a16.344 16.344 0 01-.024-1.08c0-.512.008-.872.024-1.08.096-1.696.696-3.016 1.8-3.96 1.12-.96 2.656-1.44 4.608-1.44 1.952 0 3.48.48 4.584 1.44 1.12.944 1.728 2.264 1.824 3.96.032.416.048.776.048 1.08 0 .304-.016.664-.048 1.08-.096 1.728-.688 3.064-1.776 4.008-1.072.928-2.616 1.392-4.632 1.392zm0-3.024c.656 0 1.144-.2 1.464-.6.32-.416.504-1.048.552-1.896.016-.16.024-.48.024-.96s-.008-.8-.024-.96c-.048-.832-.232-1.456-.552-1.872-.32-.416-.808-.624-1.464-.624-.656 0-1.144.208-1.464.624-.32.416-.504 1.04-.552 1.872l-.024.96.024.96c.048.848.232 1.48.552 1.896.32.4.808.6 1.464.6zm14.982 8.064c-1.536 0-2.784-.248-3.744-.744-.96-.496-1.648-1.072-2.064-1.728-.416-.64-.624-1.176-.624-1.608 0-.16.064-.296.192-.408a.639.639 0 01.432-.168h3.216c.16 0 .288.032.384.096.096.08.184.208.264.384.16.352.368.624.624.816.256.208.656.312 1.2.312.688 0 1.2-.176 1.536-.528.336-.336.504-.904.504-1.704v-1.608c-.848.88-2.008 1.32-3.48 1.32-1.616 0-2.856-.464-3.72-1.392-.848-.944-1.312-2.328-1.392-4.152l-.024-.648c0-1.952.432-3.48 1.296-4.584.88-1.104 2.16-1.656 3.84-1.656.816 0 1.536.16 2.16.48a4.42 4.42 0 011.56 1.248v-.864c0-.176.056-.32.168-.432a.548.548 0 01.432-.192h2.928c.176 0 .32.064.432.192a.548.548 0 01.192.432V16.64c0 1.84-.552 3.24-1.656 4.2-1.104.96-2.656 1.44-4.656 1.44zm-.192-8.808c.688 0 1.2-.208 1.536-.624.336-.416.528-.944.576-1.584.016-.112.024-.352.024-.72 0-.384-.008-.624-.024-.72-.048-.656-.24-1.184-.576-1.584-.336-.416-.848-.624-1.536-.624-.704 0-1.216.216-1.536.648-.32.416-.496 1-.528 1.752l-.024.528c0 .912.152 1.632.456 2.16.304.512.848.768 1.632.768zm15.257 3.768c-2.016 0-3.568-.464-4.656-1.392-1.072-.944-1.656-2.28-1.752-4.008a16.344 16.344 0 01-.024-1.08c0-.512.008-.872.024-1.08.096-1.696.696-3.016 1.8-3.96 1.12-.96 2.656-1.44 4.608-1.44 1.952 0 3.48.48 4.584 1.44 1.12.944 1.728 2.264 1.824 3.96.032.416.048.776.048 1.08 0 .304-.016.664-.048 1.08-.096 1.728-.688 3.064-1.776 4.008-1.072.928-2.616 1.392-4.632 1.392zm0-3.024c.656 0 1.144-.2 1.464-.6.32-.416.504-1.048.552-1.896.016-.16.024-.48.024-.96s-.008-.8-.024-.96c-.048-.832-.232-1.456-.552-1.872-.32-.416-.808-.624-1.464-.624-.656 0-1.144.208-1.464.624-.32.416-.504 1.04-.552 1.872l-.024.96.024.96c.048.848.232 1.48.552 1.896.32.4.808.6 1.464.6z" fill="#000"/></svg>