<svg width="134" height="27" fill="none" xmlns="http://www.w3.org/2000/svg"><path d="M13.313 25.244L2.743 4.575A2.883 2.883 0 015.752.415l19.587 3.022A2.882 2.882 0 0127.465 7.6l-9.023 17.646a2.884 2.884 0 01-5.13 0z" fill="#EEBC46"/><path d="M19.003 22.19L1.063 9.813C-.755 8.56-.137 5.95 2.13 5.335L21.197.16a2.7 2.7 0 013.616 2.492l-1.13 17.55c-.134 2.082-2.862 3.241-4.68 1.987z" fill="#46CCEE"/><path d="M24.765 3.348L15 1.841 3.013 5.096l4.785 9.361 11.205 7.732c.247.169.519.298.806.383l4.256-8.323.7-10.9z" fill="#6846EE"/><path d="M74.222 5.764A1.835 1.835 0 1176.057 7.6a1.854 1.854 0 01-1.835-1.835zm.306 2.732h3.059V18.69h-3.06V8.496zm16.269 5.097a5.12 5.12 0 01-4.872 5.383 3.831 3.831 0 01-3.038-1.244v5.036h-3.058V8.496h3.058v.958a3.829 3.829 0 013.038-1.243 5.118 5.118 0 014.872 5.382zm-3.058 0a2.427 2.427 0 10-2.426 2.488 2.329 2.329 0 002.426-2.488zm12.497 2.037c0 2.345-2.04 3.344-4.241 3.344a4.463 4.463 0 01-4.383-2.427l2.65-1.508a1.674 1.674 0 001.733 1.2c.734 0 1.1-.225 1.1-.632 0-1.122-5.015-.53-5.015-4.058 0-2.222 1.875-3.343 4-3.343a4.46 4.46 0 013.975 2.181l-2.61 1.407a1.48 1.48 0 00-1.365-.9c-.53 0-.856.2-.856.571-.003 1.17 5.012.395 5.012 4.165zm11.176-7.134V18.69h-3.058v-.96a3.483 3.483 0 01-2.916 1.244c-2.059 0-3.812-1.468-3.812-4.22V8.495h3.058v5.811a1.691 1.691 0 00.457 1.339 1.678 1.678 0 001.317.516c1.121 0 1.9-.652 1.9-2.1V8.496h3.054zm17.529 3.934v6.26h-3.058v-5.994c0-1.019-.49-1.672-1.468-1.672-1.02 0-1.59.714-1.59 1.917v5.75h-3.059v-5.995c0-1.019-.489-1.672-1.468-1.672-1.019 0-1.59.714-1.59 1.917v5.75h-3.058V8.495h3.063v.934a3.13 3.13 0 012.732-1.223 3.036 3.036 0 012.671 1.345 3.36 3.36 0 012.957-1.345c2.34.004 3.868 1.675 3.868 4.223zm2.591-3.997a2.27 2.27 0 100-4.54 2.27 2.27 0 000 4.54zM32.47 3.807h3.059V18.69h-3.06V3.807zm4.79 9.786a5.4 5.4 0 115.4 5.383 5.343 5.343 0 01-5.4-5.383zm7.749 0A2.344 2.344 0 1042.664 16a2.287 2.287 0 002.349-2.406h-.004zm15.249-5.1v9.685c0 3.425-2.671 4.872-5.382 4.872a5.211 5.211 0 01-4.832-2.467l2.609-1.509a2.33 2.33 0 002.325 1.285 2.033 2.033 0 002.3-2.18v-.939a3.621 3.621 0 01-2.977 1.325 5.18 5.18 0 010-10.357 3.622 3.622 0 012.977 1.325v-1.04h2.98zm-2.976 4.893a2.47 2.47 0 10-2.47 2.37 2.308 2.308 0 002.47-2.367v-.003zm4.708.2a5.4 5.4 0 115.4 5.383 5.342 5.342 0 01-5.4-5.376v-.007zm7.748 0a2.346 2.346 0 10-2.345 2.406 2.285 2.285 0 002.345-2.399v-.007z" fill="#fff"/></svg>