<svg width="358" height="222" fill="none" xmlns="http://www.w3.org/2000/svg"><g filter="url(#filter0_d)"><rect x="10" y="33.446" width="278" height="155" rx="5" transform="rotate(-4.838 10 33.446)" fill="#fff"/><rect x="10.27" y="33.674" width="277.5" height="154.5" rx="4.75" transform="rotate(-4.838 10.27 33.674)" stroke="#DAE3F9" stroke-width=".5"/></g><path d="M148.556 82.113c-1.052.09-2-.017-2.845-.319-.833-.315-1.506-.794-2.018-1.437-.5-.644-.787-1.402-.861-2.275-.09-1.064.309-2.32 1.198-3.769l2.797-4.518a1.69 1.69 0 01.248-.274.616.616 0 01.368-.14l2.385-.201a.342.342 0 01.28.103.369.369 0 01.13.26.413.413 0 01-.052.239l-2.142 3.505c.14-.048.318-.081.534-.1a4.908 4.908 0 012.168.431c.723.3 1.328.755 1.813 1.364.485.61.762 1.32.831 2.134.071.837-.08 1.62-.451 2.35-.372.73-.941 1.332-1.708 1.807-.755.473-1.646.753-2.675.84zm-.254-2.58c.55-.046 1.002-.253 1.356-.62.354-.38.505-.868.454-1.465-.05-.598-.281-1.048-.692-1.35-.399-.304-.88-.432-1.442-.385-.562.048-1.02.255-1.374.622-.354.368-.506.85-.456 1.448.051.598.282 1.054.694 1.368.411.303.898.43 1.46.383zm12.475 1.546c-1.052.089-2-.017-2.845-.32-.833-.314-1.506-.793-2.018-1.436-.5-.644-.787-1.403-.861-2.276-.09-1.064.309-2.32 1.198-3.768l2.797-4.518a1.69 1.69 0 01.248-.274.613.613 0 01.367-.14l2.386-.201a.342.342 0 01.28.102.369.369 0 01.13.26.413.413 0 01-.052.24l-2.142 3.505c.14-.048.318-.081.533-.1a4.909 4.909 0 012.169.431 4.47 4.47 0 011.813 1.364c.485.61.762 1.32.831 2.134.071.837-.08 1.62-.451 2.35-.372.73-.941 1.332-1.708 1.806-.755.474-1.646.754-2.675.84zm-.254-2.58c.55-.046 1.002-.253 1.356-.62.353-.38.505-.868.454-1.466-.05-.598-.281-1.048-.692-1.35-.399-.304-.88-.432-1.442-.384-.562.047-1.02.255-1.374.622-.354.367-.506.85-.456 1.448.051.598.282 1.054.694 1.368.411.302.898.43 1.46.382zm9.44-4.646c-.813.068-1.482-.086-2.008-.463-.527-.389-.844-.94-.953-1.653a14.606 14.606 0 01-.1-.75 25.914 25.914 0 01-.043-.936c-.026-.733.182-1.334.624-1.805.442-.471 1.088-.743 1.937-.815.837-.07 1.512.09 2.027.48.515.39.821.947.919 1.674.064.476.102.786.114.93.013.143.022.395.028.756.013.721-.207 1.318-.661 1.79-.455.46-1.083.724-1.884.791zm-.908 6.345a.514.514 0 01-.313-.064.369.369 0 01-.13-.26.309.309 0 01.055-.203l7.874-12.409a1.02 1.02 0 01.247-.274c.079-.067.196-.106.352-.12l1.273-.108a.39.39 0 01.296.084.291.291 0 01.147.24.309.309 0 01-.055.204l-7.874 12.408a1.397 1.397 0 01-.246.292.736.736 0 01-.353.102l-1.273.108zm.776-7.906c.502-.043.752-.359.751-.949a16.458 16.458 0 00-.028-.756c-.013-.155-.046-.4-.098-.732a1.045 1.045 0 00-.288-.626c-.146-.157-.35-.224-.613-.201-.275.023-.472.124-.589.302-.117.179-.177.4-.178.666.002.168.017.414.044.737.026.31.053.561.082.751.097.582.403.852.917.808zm8.253 7.232c-.813.069-1.482-.086-2.008-.463-.515-.39-.833-.947-.954-1.671a14.647 14.647 0 01-.088-.824 16.47 16.47 0 01-.055-.862c-.015-.745.193-1.353.623-1.823.441-.47 1.087-.742 1.936-.814.849-.072 1.525.088 2.027.479.515.39.828.953.938 1.69.065.477.103.787.115.93.012.144.022.396.028.756.013.722-.208 1.319-.661 1.79-.454.472-1.088.743-1.901.812zm-.133-1.579c.275-.023.471-.124.588-.302.117-.19.176-.413.179-.666a13.97 13.97 0 00-.028-.756c-.013-.156-.046-.4-.098-.733a1.173 1.173 0 00-.287-.608c-.146-.168-.357-.24-.632-.217-.275.023-.471.13-.587.32a1.066 1.066 0 00-.162.647c.002.168.017.414.044.737.027.322.055.573.082.751a1.3 1.3 0 00.27.628c.145.156.356.223.631.2z" fill="#EEBC46"/><path d="M240.854 131.523c-1.076.091-2.011.002-2.804-.268-.795-.282-1.42-.693-1.875-1.233a3.457 3.457 0 01-.785-1.812.364.364 0 01.344-.408l2.404-.204c.275-.023.476.074.602.292.391.774 1.029 1.124 1.914 1.049.526-.045.955-.244 1.286-.597.342-.366.489-.842.439-1.428-.044-.526-.26-.941-.647-1.246-.375-.305-.838-.435-1.388-.388-.311.026-.558.089-.743.189-.173.087-.349.21-.528.37-.19.173-.345.264-.465.274l-2.349.199a.436.436 0 01-.297-.083.435.435 0 01-.131-.278l.115-6.314a.562.562 0 01.146-.41.65.65 0 01.401-.179l7.192-.608a.435.435 0 01.333.098c.103.075.16.179.171.311l.143 1.686a.414.414 0 01-.116.335.441.441 0 01-.312.152l-5.202.441-.037 2.333c.282-.228.598-.406.948-.532.35-.138.812-.231 1.386-.28a4.603 4.603 0 012.178.34 3.948 3.948 0 011.718 1.3c.459.587.723 1.281.79 2.082.072.849-.073 1.626-.435 2.331-.362.693-.923 1.259-1.681 1.696-.745.437-1.65.7-2.715.79zm8.907-.953a.367.367 0 01-.279-.084.441.441 0 01-.132-.278.359.359 0 01.023-.165l3.356-9.641-5.362.454a.502.502 0 01-.352-.097.502.502 0 01-.154-.33l-.152-1.794a.441.441 0 01.098-.333.508.508 0 01.33-.155l8.376-.709a.466.466 0 01.352.097.439.439 0 01.153.312l.135 1.597c.021.251-.022.525-.129.823l-3.358 9.624c-.108.298-.305.459-.592.484l-2.313.195z" fill="#34A853"/><path d="M148.614 139.132a.502.502 0 01-.352-.097.439.439 0 01-.153-.312l-.108-1.274c-.03-.358.095-.664.374-.917l1.711-1.987a93.556 93.556 0 002.31-2.164c.522-.514.911-.975 1.165-1.382.255-.407.367-.783.338-1.13-.08-.945-.586-1.378-1.519-1.299-.49.042-.854.223-1.092.544-.239.31-.381.689-.427 1.138-.049.282-.24.436-.575.465l-2.242.189a.368.368 0 01-.409-.344 4.157 4.157 0 01.45-2.152c.352-.68.877-1.236 1.575-1.669.709-.445 1.542-.708 2.499-.789 1.004-.085 1.879.003 2.623.265.745.262 1.328.671 1.748 1.225.42.555.663 1.221.729 1.998.071.837-.128 1.625-.595 2.363-.456.725-1.183 1.533-2.179 2.424l-1.509 1.808 4.609-.39a.434.434 0 01.334.098c.103.075.16.179.171.31l.153 1.812a.413.413 0 01-.116.335.439.439 0 01-.312.153l-9.201.779zm17.891-1.515a.479.479 0 01-.334-.098.477.477 0 01-.153-.312l-.171-2.027-5.578.472a.438.438 0 01-.334-.098.442.442 0 01-.153-.312l-.144-1.704c-.015-.179.035-.37.15-.573l4.622-7.508a.816.816 0 01.637-.361l2.619-.222a.442.442 0 01.334.098c.09.077.141.181.152.312l.589 6.96 1.579-.134a.431.431 0 01.353.115c.09.076.141.174.151.294l.15 1.775a.438.438 0 01-.098.334.437.437 0 01-.312.153l-1.596.135.171 2.027a.478.478 0 01-.098.333.439.439 0 01-.312.153l-2.224.188zm-.802-4.99l-.358-4.233-2.655 4.488 3.013-.255z" fill="#F24E1E"/><path d="M236.135 74.7c-1.16.099-2.149.002-2.969-.29-.807-.293-1.425-.686-1.852-1.18-.416-.507-.659-1.028-.729-1.564a.37.37 0 01.085-.278.433.433 0 01.278-.132l2.35-.2a.65.65 0 01.329.045.674.674 0 01.256.25c.291.601.969.857 2.034.767.609-.052 1.07-.23 1.382-.533.322-.316.463-.72.421-1.21-.081-.956-.743-1.382-1.987-1.276l-1.991.168a.479.479 0 01-.333-.098.478.478 0 01-.153-.312l-.085-1.005c-.022-.263.056-.474.235-.634l2.731-2.742-4.986.422a.48.48 0 01-.334-.098.478.478 0 01-.153-.312l-.142-1.686a.433.433 0 01.098-.334.476.476 0 01.312-.153l8.251-.698a.438.438 0 01.333.098.41.41 0 01.171.31l.129 1.525a.768.768 0 01-.237.617l-2.512 2.76.128.025c1.113.05 2.011.347 2.695.892.696.53 1.09 1.346 1.183 2.446.068.802-.1 1.52-.504 2.157-.404.636-.993 1.15-1.766 1.54-.774.39-1.663.629-2.668.714zm7.719-.833a.503.503 0 01-.352-.097.437.437 0 01-.153-.312l-.107-1.274c-.031-.358.094-.664.374-.916l1.71-1.988a93.769 93.769 0 002.31-2.164c.522-.514.911-.975 1.165-1.382.255-.407.368-.783.338-1.13-.08-.945-.586-1.378-1.519-1.299-.49.042-.854.223-1.092.544-.239.31-.381.689-.427 1.139-.049.28-.24.435-.575.464l-2.242.19a.366.366 0 01-.278-.085.366.366 0 01-.131-.26 4.157 4.157 0 01.45-2.152c.352-.68.877-1.236 1.575-1.669.709-.445 1.542-.708 2.499-.79 1.004-.084 1.879.004 2.623.266.745.263 1.328.67 1.748 1.225.42.555.663 1.22.729 1.998.071.837-.127 1.624-.595 2.362-.456.726-1.183 1.534-2.179 2.425l-1.509 1.808 4.609-.39a.44.44 0 01.334.098.41.41 0 01.171.31l.153 1.812a.413.413 0 01-.116.335.44.44 0 01-.312.153l-9.201.779zm15.546-1.912a.48.48 0 01-.334-.099.478.478 0 01-.153-.312l-.277-3.282-3.193.27a.5.5 0 01-.351-.096.437.437 0 01-.153-.313l-.111-1.31a.437.437 0 01.098-.332.468.468 0 01.329-.173l3.192-.27-.268-3.175a.433.433 0 01.098-.333.476.476 0 01.312-.153l1.471-.125a.439.439 0 01.333.099c.091.076.142.18.153.312l.269 3.175 3.174-.27a.41.41 0 01.335.117c.091.077.142.18.153.312l.111 1.31a.438.438 0 01-.098.333.44.44 0 01-.312.153l-3.175.269.278 3.282c.01.12-.023.23-.098.333a.44.44 0 01-.313.153l-1.47.125z" fill="#46CCEE"/><path d="M150.524 94.906c-.379-1.53-1.67-2.333-3.202-2.203-1.875.159-3.14 1.68-2.944 3.998.197 2.318 1.692 3.607 3.574 3.447 1.593-.135 2.672-1.231 2.788-2.684l-1.104.09c-.109.943-.845 1.518-1.761 1.596-1.242.105-2.26-.768-2.41-2.54-.149-1.759.703-2.804 1.952-2.91.924-.078 1.743.377 2.003 1.299l1.104-.093zm3.936 4.702c1.532-.13 2.438-1.336 2.296-3.017-.143-1.691-1.239-2.728-2.772-2.598-1.532.13-2.438 1.336-2.295 3.027.142 1.68 1.239 2.718 2.771 2.588zm-.072-.888c-1.001.084-1.542-.75-1.631-1.794-.088-1.04.304-1.964 1.306-2.05.994-.083 1.536.762 1.624 1.802.088 1.044-.305 1.957-1.299 2.042zm4.562-2.853c-.074-.867.415-1.407 1.151-1.47.719-.06 1.194.374 1.26 1.163l.282 3.33 1.058-.09-.292-3.457c-.114-1.345-.913-1.986-2.024-1.892-.818.069-1.32.493-1.522 1.09l-.068.007-.075-.885-1.015.086.46 5.435 1.058-.09-.273-3.227zm9.165-3l-1.136.097-1.019 4.299-.056.004-1.731-4.066-1.136.097 2.435 5.267 1.132-.095 1.511-5.602zm3.612 5.28c1.185-.1 1.974-.756 2.14-1.66l-1.017-.096c-.147.529-.585.83-1.187.88-.906.077-1.564-.459-1.681-1.504l3.864-.327-.032-.375c-.166-1.963-1.406-2.632-2.637-2.528-1.514.128-2.415 1.366-2.273 3.037.143 1.688 1.22 2.708 2.823 2.573zm-1.808-3.172c-.023-.775.479-1.491 1.339-1.564.821-.07 1.41.493 1.484 1.325l-2.823.239zm5.304 2.765l1.058-.09-.281-3.319c-.06-.71.445-1.27 1.195-1.334.22-.018.471 0 .558.017l-.086-1.012a4.343 4.343 0 00-.452.014c-.637.053-1.151.46-1.3 1.061l-.056.005-.073-.863-1.023.086.46 5.435zm7.549-4.776c-.291-.828-.999-1.324-2.174-1.224-1.228.104-2.043.825-1.962 1.788.065.77.576 1.244 1.614 1.385l.937.123c.534.073.798.286.827.625.035.421-.386.789-1.08.847-.633.054-1.063-.184-1.236-.708l-1.009.243c.258.947 1.104 1.42 2.324 1.317 1.313-.11 2.164-.885 2.08-1.868-.065-.768-.593-1.201-1.61-1.347l-.881-.125c-.61-.09-.885-.27-.913-.639-.039-.417.389-.752.991-.803.658-.056.993.283 1.148.637l.944-.252zm1.618 4l1.058-.09-.461-5.434-1.058.09.461 5.434zm.003-6.319c.364-.03.645-.34.615-.686-.029-.347-.358-.608-.722-.577-.368.031-.645.343-.615.69.029.347.354.605.722.573zm4.777 6.025c1.532-.13 2.438-1.336 2.296-3.017-.143-1.691-1.24-2.728-2.772-2.598-1.532.13-2.438 1.336-2.295 3.027.142 1.68 1.238 2.718 2.771 2.588zm-.072-.888c-1.001.085-1.543-.75-1.631-1.794-.088-1.04.304-1.964 1.306-2.05.994-.083 1.536.762 1.624 1.802.088 1.044-.305 1.958-1.299 2.042zm4.562-2.853c-.074-.867.415-1.407 1.151-1.47.718-.06 1.194.374 1.26 1.163l.282 3.33 1.058-.09-.292-3.457c-.114-1.345-.913-1.986-2.025-1.892-.817.069-1.319.493-1.522 1.09l-.067.007-.075-.885-1.015.086.46 5.435 1.058-.09-.273-3.227zm8.895-1.64c-.291-.827-.999-1.323-2.174-1.224-1.228.104-2.044.826-1.962 1.788.065.771.576 1.245 1.614 1.385l.937.124c.534.072.798.285.826.625.036.421-.386.788-1.079.847-.634.053-1.063-.184-1.236-.708l-1.01.242c.259.948 1.104 1.421 2.325 1.318 1.313-.111 2.163-.885 2.08-1.869-.065-.768-.593-1.2-1.611-1.346l-.88-.125c-.61-.091-.885-.27-.913-.64-.039-.416.389-.752.991-.803.658-.056.993.283 1.148.637l.944-.25zm40.846 54.235c-.196-2.318-1.702-3.605-3.578-3.446-1.882.159-3.147 1.681-2.951 3.999.196 2.314 1.699 3.605 3.581 3.446 1.876-.159 3.144-1.681 2.948-3.999zm-1.083.092c.149 1.765-.704 2.803-1.949 2.909-1.249.105-2.261-.775-2.41-2.54-.15-1.766.7-2.804 1.949-2.91 1.245-.105 2.261.775 2.41 2.541zm2.84 5.461l1.058-.089-.244-2.884.064-.005c.22.33.661.902 1.652.818 1.316-.111 2.182-1.246 2.033-3.005-.149-1.762-1.206-2.717-2.519-2.606-1.009.086-1.321.732-1.48 1.084l-.088.008-.075-.881-1.033.087.632 7.473zm.635-4.843c-.097-1.136.335-1.932 1.259-2.01.958-.081 1.508.689 1.6 1.768.092 1.09-.333 1.963-1.278 2.043-.909.077-1.485-.658-1.581-1.801zm7.42-3.365l-1.115.094-.11-1.302-1.058.09.11 1.302-.796.067.072.849.796-.067.272 3.209c.08.988.874 1.402 1.707 1.313.336-.032.557-.114.677-.171l-.265-.858c-.069.02-.198.063-.367.078-.344.029-.661-.058-.713-.671l-.253-2.99 1.115-.094-.072-.849zm4.35 1.56l-3.213.272.077.916 3.213-.272-.077-.916zm1.708 3.401l1.058-.089-.46-5.436-1.058.09.46 5.435zm.003-6.319c.364-.031.645-.34.615-.686-.029-.347-.358-.608-.722-.577-.368.031-.645.343-.615.69.029.347.354.604.722.573zm3.263 2.792c-.074-.867.415-1.407 1.151-1.469.719-.061 1.194.373 1.26 1.162l.282 3.33 1.058-.09-.292-3.457c-.114-1.345-.913-1.986-2.024-1.892-.818.069-1.32.493-1.522 1.091l-.068.006-.075-.885-1.015.086.46 5.435 1.058-.09-.273-3.227zm8.895-1.64c-.291-.827-.999-1.323-2.174-1.224-1.228.104-2.043.826-1.962 1.788.065.771.576 1.245 1.614 1.385l.937.124c.534.072.798.285.826.625.036.421-.385.788-1.079.847-.633.053-1.063-.185-1.236-.708l-1.009.242c.258.948 1.104 1.421 2.324 1.318 1.313-.111 2.163-.885 2.08-1.869-.065-.768-.593-1.201-1.611-1.346l-.88-.125c-.61-.091-.885-.271-.913-.639-.039-.417.389-.753.991-.804.658-.056.993.283 1.148.637l.944-.251zm-119.36 14.24c2.208-.186 3.37-1.664 3.178-3.929-.191-2.254-1.583-3.504-3.717-3.324l-2.42.205.613 7.247 2.346-.199zm-1.333-.849l-.452-5.336 1.26-.107c1.585-.134 2.483.745 2.627 2.455.146 1.716-.59 2.747-2.243 2.887l-1.192.101zm6.093.447l1.058-.09-.46-5.435-1.058.089.46 5.436zm.004-6.319c.364-.031.644-.34.615-.687-.029-.347-.358-.607-.722-.577-.368.032-.645.344-.616.69.03.347.355.605.723.574zm2.478 6.109l1.058-.09-.281-3.319c-.06-.711.445-1.271 1.195-1.334.219-.019.47-.001.557.017l-.086-1.012a4.18 4.18 0 00-.451.013c-.637.054-1.151.461-1.3 1.061l-.057.005-.073-.863-1.022.086.46 5.436zm5.981-.396c1.185-.101 1.975-.755 2.14-1.66l-1.016-.096c-.148.529-.586.83-1.187.881-.906.077-1.565-.459-1.682-1.504l3.865-.327-.032-.375c-.166-1.964-1.406-2.633-2.638-2.529-1.514.129-2.414 1.367-2.273 3.037.143 1.688 1.22 2.708 2.823 2.573zm-1.808-3.172c-.023-.775.48-1.491 1.339-1.564.821-.07 1.411.493 1.485 1.325l-2.824.239zm7.603 2.681c1.285-.108 2.051-.95 2.078-2.018l-1.03.087c-.084.599-.511.984-1.117 1.035-.895.076-1.535-.622-1.635-1.807-.099-1.164.427-1.946 1.311-2.021.673-.057 1.119.333 1.275.833l1.03-.087c-.206-1.088-1.163-1.741-2.398-1.636-1.532.129-2.425 1.367-2.285 3.026.139 1.639 1.193 2.722 2.771 2.588zm5.432-6.044l-1.114.094-.111-1.302-1.058.09.11 1.302-.796.067.072.849.796-.067.272 3.209c.08.988.874 1.402 1.708 1.314.336-.032.557-.115.677-.172l-.265-.858c-.07.021-.198.063-.368.078-.343.029-.661-.058-.713-.67l-.253-2.99 1.115-.095-.072-.849zm4.712-2.224l-1.058.09.614 7.247 1.058-.09-.614-7.247zm2.037 7.127l1.058-.09-.46-5.435-1.058.09.46 5.435zm.003-6.319c.365-.031.645-.34.616-.687-.03-.346-.358-.607-.723-.576-.368.031-.644.343-.615.69.029.346.354.604.722.573zm3.263 2.792c-.073-.867.416-1.407 1.152-1.469.718-.061 1.193.373 1.26 1.162l.282 3.329 1.058-.089-.293-3.457c-.114-1.345-.913-1.987-2.024-1.892-.817.069-1.32.493-1.522 1.091l-.067.005-.075-.884-1.016.086.46 5.435 1.058-.09-.273-3.227zm5.171 2.813l1.058-.09-.164-1.928.483-.572 2.055 2.299 1.299-.11-2.613-2.904 2.004-2.518-1.267.107-1.971 2.483-.092.008-.348-4.112-1.058.09.614 7.247zm9.271-4.923c-.291-.827-.999-1.323-2.174-1.223-1.228.104-2.043.825-1.962 1.787.065.772.576 1.245 1.614 1.385l.937.124c.534.073.798.285.826.625.036.421-.386.788-1.079.847-.633.054-1.063-.184-1.236-.708l-1.009.242c.258.948 1.103 1.422 2.324 1.318 1.313-.111 2.163-.885 2.08-1.869-.065-.767-.593-1.2-1.611-1.346l-.88-.125c-.61-.091-.885-.271-.913-.639-.039-.417.389-.753.991-.804.658-.055.993.283 1.148.637l.944-.251zm31.013-62.99l.613 7.247 1.04-.088-.444-5.247.068-.006 2.58 5.056.863-.073 1.695-5.414.067-.006.444 5.244 1.04-.088-.613-7.247-1.327.112-1.83 5.829-.085.007-2.784-5.438-1.327.112zm15.544 2.334c-.196-2.318-1.702-3.605-3.578-3.446-1.882.16-3.147 1.681-2.95 3.999.195 2.314 1.698 3.605 3.581 3.446.467-.04.895-.161 1.27-.36l.687.75 1.118-.095-1.084-1.19c.696-.698 1.069-1.77.956-3.104zm-3.523 1.581l1.144 1.265a2.12 2.12 0 01-.653.155c-1.249.106-2.261-.775-2.41-2.54-.15-1.766.7-2.804 1.949-2.91 1.245-.105 2.261.775 2.41 2.54.084.992-.147 1.756-.59 2.25l-.774-.85-1.076.09zm5.193 1.927l4.377-.37-.08-.942-3.283.278-.534-6.305-1.093.092.613 7.247zm9.265-4.922c-.291-.827-1-1.323-2.175-1.223-1.228.104-2.043.825-1.962 1.787.066.772.576 1.245 1.614 1.385l.937.124c.534.073.798.286.827.625.035.421-.386.788-1.08.847-.633.054-1.063-.184-1.236-.708l-1.009.242c.258.948 1.104 1.422 2.325 1.318 1.312-.11 2.163-.885 2.079-1.868-.065-.768-.593-1.201-1.61-1.347l-.881-.125c-.61-.09-.885-.27-.912-.639-.039-.417.388-.753.99-.804.658-.055.993.283 1.148.637l.945-.25z" fill="#000"/><path fill="#EEBC46" d="M41.558 98.015l15.943-1.35 5.904 69.751-15.943 1.35zm21.937 10.186l15.943-1.35 4.892 57.794-15.943 1.35zM81.89 76.536l15.943-1.35 7.422 87.687-15.943 1.35zm22.444 16.165l15.943-1.35 5.904 69.751-15.943 1.35z"/><path d="M45.881 63.437a.51.51 0 01-.329-.07.974.974 0 01-.228-.206l-.527-.588c-.343.15-.752.246-1.227.287-1.31.11-2.37-.123-3.178-.7-.798-.58-1.274-1.49-1.425-2.732-.033-.27-.071-.669-.116-1.199-.046-.54-.075-.944-.089-1.215-.066-1.23.254-2.208.96-2.933.715-.735 1.715-1.157 2.998-1.266 1.284-.108 2.34.14 3.168.744.828.595 1.313 1.505 1.454 2.73.064.537.107.94.13 1.21.022.26.047.661.074 1.202.06 1.148-.2 2.069-.778 2.764l1.141 1.364c.033.054.05.1.054.136l.002.028a.226.226 0 01-.068.189.269.269 0 01-.188.1l-1.828.155zm-2.48-2.586c.51-.044.902-.231 1.174-.563.281-.333.404-.817.37-1.45a40.303 40.303 0 00-.07-1.147c-.02-.242-.062-.622-.125-1.142-.072-.63-.274-1.086-.607-1.367-.324-.282-.741-.401-1.253-.358-.502.043-.894.23-1.174.563-.272.332-.39.816-.355 1.45.012.26.04.642.082 1.145.042.492.08.873.111 1.142.072.631.27 1.087.594 1.37.323.28.74.4 1.252.357zm6.49 1.333a.391.391 0 01-.274-.075.341.341 0 01-.118-.243l-.084-.99a.825.825 0 01.29-.713l1.331-1.546a71.897 71.897 0 001.796-1.684c.407-.4.709-.758.907-1.074.198-.317.286-.61.263-.88-.062-.734-.456-1.07-1.182-1.01-.38.033-.664.174-.849.424a1.7 1.7 0 00-.332.885c-.038.219-.187.339-.448.361l-1.743.148a.285.285 0 01-.318-.268 3.235 3.235 0 01.35-1.674 3.297 3.297 0 011.225-1.298c.551-.346 1.199-.551 1.943-.614.781-.066 1.461.003 2.04.207.58.203 1.033.521 1.36.952.327.432.516.95.567 1.554.055.651-.1 1.264-.463 1.838-.355.564-.92 1.192-1.695 1.885l-1.173 1.406 3.585-.303a.34.34 0 01.26.076.32.32 0 01.132.242l.12 1.409a.32.32 0 01-.091.26.34.34 0 01-.243.12l-7.156.605zm13.27-1.123a.372.372 0 01-.26-.077.372.372 0 01-.118-.242l-.767-9.068a.34.34 0 01.076-.26.372.372 0 01.243-.118l3.794-.321c1.218-.104 2.19.095 2.917.596.734.49 1.145 1.242 1.23 2.256.056.651-.051 1.217-.32 1.699a2.95 2.95 0 01-1.18 1.154l2.201 3.27a.341.341 0 01.055.15.294.294 0 01-.08.217.269.269 0 01-.188.1l-1.855.157c-.27.023-.471-.086-.604-.328l-1.85-2.934-1.423.12.262 3.097a.32.32 0 01-.09.26.346.346 0 01-.243.12l-1.8.152zm3.308-5.746c.427-.036.744-.166.95-.39.205-.232.292-.534.26-.906-.031-.372-.168-.656-.409-.85-.233-.206-.567-.29-1.005-.253l-1.604.136.203 2.4 1.605-.137zm9.518 4.8c-1.116.095-2.02-.133-2.713-.683-.693-.55-1.102-1.4-1.228-2.551l-.041-.489c-.056-1.1.211-1.985.801-2.653.598-.678 1.442-1.063 2.53-1.155.79-.067 1.469.04 2.036.32a2.981 2.981 0 011.338 1.207c.327.534.52 1.164.582 1.89l.028.334a.373.373 0 01-.076.26.34.34 0 01-.243.118l-4.464.378.008.098c.056.435.193.78.41 1.033.219.253.514.364.886.332.233-.02.42-.082.56-.187a2.14 2.14 0 00.374-.397c.075-.11.135-.176.18-.198a.586.586 0 01.248-.063l1.73-.147a.285.285 0 01.216.066.227.227 0 01.114.187c.02.242-.096.533-.348.873-.243.339-.615.646-1.116.923-.501.277-1.105.445-1.812.505zm.79-4.604l-.002-.028c-.038-.456-.175-.805-.412-1.047-.227-.253-.527-.363-.899-.332-.362.031-.64.19-.83.478-.183.278-.255.645-.216 1.1l.002.028 2.358-.2zm7.549 3.899c-.753.064-1.395.01-1.924-.16-.52-.172-.914-.396-1.181-.673s-.41-.532-.43-.765a.28.28 0 01.078-.231.357.357 0 01.23-.118l1.59-.134a.214.214 0 01.159.056c.118.065.207.119.266.16.218.132.404.229.559.29.163.052.357.069.58.05.27-.023.484-.093.643-.21a.521.521 0 00.226-.482.511.511 0 00-.172-.365c-.091-.086-.266-.16-.524-.223-.26-.071-.649-.137-1.169-.196-.785-.092-1.402-.298-1.85-.616-.44-.328-.686-.794-.737-1.399a1.869 1.869 0 01.27-1.118c.213-.365.548-.674 1.004-.928.465-.255 1.028-.41 1.688-.466.66-.056 1.246-.003 1.756.16s.904.383 1.18.659c.285.266.438.52.458.762a.309.309 0 01-.079.231.265.265 0 01-.2.116l-1.452.123a.355.355 0 01-.215-.052 2.138 2.138 0 01-.338-.182 2.475 2.475 0 00-.47-.242 1.222 1.222 0 00-.525-.054c-.242.02-.432.093-.572.217a.53.53 0 00-.172.45c.012.14.059.253.141.34.091.086.267.165.526.236a9.89 9.89 0 001.166.169c.916.081 1.595.305 2.038.67.452.364.701.816.747 1.356.058.688-.202 1.267-.78 1.738-.58.461-1.418.738-2.515.83zm7.808-.661c-.818.07-1.502-.15-2.05-.655-.55-.516-.867-1.271-.95-2.266l-.33-3.892a.341.341 0 01.076-.26c.06-.07.14-.11.243-.119l1.744-.147a.342.342 0 01.26.076.32.32 0 01.132.242l.322 3.808c.078.912.52 1.333 1.33 1.265.39-.034.687-.18.89-.441.202-.26.286-.605.25-1.033l-.323-3.808a.341.341 0 01.077-.26.373.373 0 01.242-.118l1.744-.148a.341.341 0 01.26.076c.07.06.11.14.118.243l.555 6.557a.373.373 0 01-.076.26.34.34 0 01-.243.118l-1.618.137a.373.373 0 01-.26-.076.373.373 0 01-.118-.243l-.045-.53c-.426.72-1.17 1.124-2.23 1.214zm7.028-.735a.372.372 0 01-.26-.077.373.373 0 01-.118-.243l-.78-9.207a.341.341 0 01.077-.259.373.373 0 01.243-.119l1.646-.14a.34.34 0 01.259.077c.071.06.11.14.119.243l.779 9.207a.338.338 0 01-.076.26.343.343 0 01-.243.118l-1.646.14zm7.772-.658c-1.925.163-2.965-.672-3.12-2.504l-.227-2.678-1.088.092a.39.39 0 01-.273-.075.337.337 0 01-.119-.243l-.096-1.13a.339.339 0 01.077-.26.387.387 0 01.256-.12l1.088-.092-.194-2.302a.338.338 0 01.076-.259.374.374 0 01.243-.119l1.618-.137a.34.34 0 01.259.076c.071.06.111.141.119.243l.195 2.302 1.744-.147a.34.34 0 01.259.076.32.32 0 01.133.242l.096 1.13a.322.322 0 01-.091.26.339.339 0 01-.242.119l-1.744.148.21 2.483c.058.688.352 1.01.883.965l1.074-.091a.341.341 0 01.259.076c.071.06.11.14.119.243l.103 1.214a.372.372 0 01-.077.26.34.34 0 01-.243.118l-1.297.11zm6.217-.386c-.753.064-1.395.01-1.924-.16-.521-.172-.914-.396-1.181-.673s-.411-.532-.43-.764a.28.28 0 01.078-.232.356.356 0 01.229-.118l1.591-.134a.215.215 0 01.159.056c.118.066.207.119.266.16.218.132.404.229.559.29.163.052.357.069.58.05.27-.023.484-.093.643-.21a.522.522 0 00.226-.482.513.513 0 00-.172-.365c-.091-.086-.266-.16-.524-.222-.259-.072-.649-.137-1.169-.196-.785-.093-1.402-.299-1.851-.617-.439-.328-.685-.794-.736-1.398a1.875 1.875 0 01.27-1.12c.213-.364.548-.673 1.004-.927.465-.255 1.028-.41 1.688-.466.661-.056 1.246-.003 1.756.16s.904.383 1.18.66c.285.265.437.52.458.761a.307.307 0 01-.079.232.264.264 0 01-.201.115l-1.451.123a.355.355 0 01-.215-.052 2.136 2.136 0 01-.338-.182 2.493 2.493 0 00-.47-.242 1.223 1.223 0 00-.525-.053c-.242.02-.432.092-.572.217a.53.53 0 00-.172.45c.012.14.059.252.141.339.092.086.267.165.526.236a9.89 9.89 0 001.166.169c.916.081 1.595.305 2.038.67.452.365.701.817.747 1.356.058.688-.202 1.268-.78 1.738-.579.461-1.418.738-2.515.831z" fill="#1E1E1E"/><g filter="url(#filter1_d)"><rect x="70" y="57" width="278" height="155" rx="5" fill="#fff"/><rect x="70.25" y="57.25" width="277.5" height="154.5" rx="4.75" stroke="#DAE3F9" stroke-width=".5"/></g><path d="M203.958 117.18c-1.056 0-1.992-.186-2.808-.558-.804-.384-1.434-.918-1.89-1.602-.444-.684-.666-1.464-.666-2.34 0-1.068.504-2.286 1.512-3.654l3.168-4.266c.096-.108.186-.192.27-.252a.614.614 0 01.378-.108h2.394c.108 0 .198.042.27.126a.366.366 0 01.108.27.414.414 0 01-.072.234l-2.43 3.312c.144-.036.324-.054.54-.054.732.036 1.44.24 2.124.612.696.36 1.26.864 1.692 1.512a3.87 3.87 0 01.648 2.196c0 .84-.216 1.608-.648 2.304-.432.696-1.05 1.248-1.854 1.656-.792.408-1.704.612-2.736.612zm-.036-2.592c.552 0 1.02-.168 1.404-.504.384-.348.576-.822.576-1.422s-.192-1.068-.576-1.404c-.372-.336-.84-.504-1.404-.504s-1.038.168-1.422.504c-.384.336-.576.804-.576 1.404 0 .6.192 1.074.576 1.422.384.336.858.504 1.422.504zm12.301 2.592c-1.056 0-1.992-.186-2.808-.558-.804-.384-1.434-.918-1.89-1.602-.444-.684-.666-1.464-.666-2.34 0-1.068.504-2.286 1.512-3.654l3.168-4.266c.096-.108.186-.192.27-.252a.614.614 0 01.378-.108h2.394c.108 0 .198.042.27.126a.366.366 0 01.108.27.414.414 0 01-.072.234l-2.43 3.312c.144-.036.324-.054.54-.054.732.036 1.44.24 2.124.612.696.36 1.26.864 1.692 1.512a3.87 3.87 0 01.648 2.196c0 .84-.216 1.608-.648 2.304-.432.696-1.05 1.248-1.854 1.656-.792.408-1.704.612-2.736.612zm-.036-2.592c.552 0 1.02-.168 1.404-.504.384-.348.576-.822.576-1.422s-.192-1.068-.576-1.404c-.372-.336-.84-.504-1.404-.504s-1.038.168-1.422.504c-.384.336-.576.804-.576 1.404 0 .6.192 1.074.576 1.422.384.336.858.504 1.422.504zm9.798-3.834c-.816 0-1.47-.21-1.962-.63-.492-.432-.762-1.008-.81-1.728-.024-.36-.036-.612-.036-.756 0-.144.012-.456.036-.936.036-.732.294-1.314.774-1.746.48-.432 1.146-.648 1.998-.648.84 0 1.5.216 1.98.648.48.432.738 1.014.774 1.746.024.48.036.792.036.936 0 .144-.012.396-.036.756-.048.72-.318 1.296-.81 1.728-.492.42-1.14.63-1.944.63zm-1.44 6.246a.513.513 0 01-.306-.09.366.366 0 01-.108-.27.31.31 0 01.072-.198l8.892-11.7c.096-.12.186-.204.27-.252.084-.06.204-.09.36-.09h1.278a.39.39 0 01.288.108c.084.06.126.144.126.252a.31.31 0 01-.072.198l-8.892 11.7c-.096.12-.186.21-.27.27a.735.735 0 01-.36.072h-1.278zm1.44-7.812c.504 0 .78-.294.828-.882.024-.384.036-.636.036-.756 0-.156-.012-.402-.036-.738a1.036 1.036 0 00-.234-.648c-.132-.168-.33-.252-.594-.252-.276 0-.48.084-.612.252a1.2 1.2 0 00-.234.648c-.012.168-.018.414-.018.738 0 .312.006.564.018.756.048.588.33.882.846.882zm7.614 7.902c-.816 0-1.47-.21-1.962-.63-.48-.432-.75-1.014-.81-1.746-.012-.204-.018-.48-.018-.828 0-.36.006-.648.018-.864.048-.744.306-1.332.774-1.764.48-.432 1.146-.648 1.998-.648.852 0 1.512.216 1.98.648.48.432.744 1.02.792 1.764.024.48.036.792.036.936 0 .144-.012.396-.036.756-.048.72-.318 1.296-.81 1.728-.492.432-1.146.648-1.962.648zm0-1.584c.276 0 .48-.084.612-.252.132-.18.21-.396.234-.648.024-.36.036-.612.036-.756 0-.156-.012-.402-.036-.738a1.176 1.176 0 00-.234-.63c-.132-.18-.336-.27-.612-.27-.276 0-.48.09-.612.27a1.075 1.075 0 00-.216.63c-.012.168-.018.414-.018.738s.006.576.018.756c.024.264.096.48.216.648.132.168.336.252.612.252z" fill="#4678EE"/><path d="M291.76 174.198c-1.08 0-2.004-.168-2.772-.504-.768-.348-1.356-.81-1.764-1.386a3.465 3.465 0 01-.63-1.872.366.366 0 01.378-.378h2.412c.276 0 .468.114.576.342.324.804.93 1.206 1.818 1.206.528 0 .972-.162 1.332-.486.372-.336.558-.798.558-1.386 0-.528-.18-.96-.54-1.296-.348-.336-.798-.504-1.35-.504-.312 0-.564.042-.756.126-.18.072-.366.18-.558.324-.204.156-.366.234-.486.234h-2.358a.43.43 0 01-.288-.108.43.43 0 01-.108-.288l.648-6.282a.56.56 0 01.18-.396.644.644 0 01.414-.144h7.218c.132 0 .24.042.324.126a.41.41 0 01.144.324v1.692a.41.41 0 01-.144.324.439.439 0 01-.324.126h-5.22l-.234 2.322c.3-.204.63-.354.99-.45.36-.108.828-.162 1.404-.162.756 0 1.47.174 2.142.522a3.954 3.954 0 011.602 1.44c.408.624.612 1.338.612 2.142 0 .852-.21 1.614-.63 2.286-.42.66-1.026 1.176-1.818 1.548-.78.372-1.704.558-2.772.558zm8.955-.198a.366.366 0 01-.27-.108.43.43 0 01-.108-.288c0-.06.012-.114.036-.162l4.158-9.324h-5.382a.502.502 0 01-.342-.126.502.502 0 01-.126-.342v-1.8c0-.132.042-.24.126-.324a.502.502 0 01.342-.126h8.406c.144 0 .258.042.342.126a.439.439 0 01.126.324v1.602c0 .252-.066.522-.198.81l-4.158 9.306c-.132.288-.342.432-.63.432h-2.322z" fill="#34A853"/><path d="M199.206 174a.502.502 0 01-.342-.126.439.439 0 01-.126-.324v-1.278c0-.36.15-.654.45-.882l1.872-1.836a92.289 92.289 0 002.484-1.962c.564-.468.99-.894 1.278-1.278.288-.384.432-.75.432-1.098 0-.948-.468-1.422-1.404-1.422-.492 0-.87.15-1.134.45-.264.288-.438.654-.522 1.098-.072.276-.276.414-.612.414h-2.25a.366.366 0 01-.378-.378 4.16 4.16 0 01.63-2.106c.408-.648.978-1.158 1.71-1.53.744-.384 1.596-.576 2.556-.576 1.008 0 1.872.162 2.592.486.72.324 1.266.78 1.638 1.368.372.588.558 1.272.558 2.052 0 .84-.264 1.608-.792 2.304-.516.684-1.308 1.428-2.376 2.232l-1.656 1.674h4.626c.132 0 .24.042.324.126a.41.41 0 01.144.324v1.818a.41.41 0 01-.144.324.439.439 0 01-.324.126h-9.234zm17.955 0a.48.48 0 01-.324-.126.48.48 0 01-.126-.324v-2.034h-5.598a.439.439 0 01-.324-.126.439.439 0 01-.126-.324v-1.71c0-.18.066-.366.198-.558l5.238-7.092a.82.82 0 01.666-.306h2.628c.132 0 .24.042.324.126a.439.439 0 01.126.324v6.984h1.584c.144 0 .258.048.342.144a.417.417 0 01.126.306v1.782c0 .132-.042.24-.126.324a.439.439 0 01-.324.126h-1.602v2.034a.48.48 0 01-.126.324.439.439 0 01-.324.126h-2.232zm-.378-5.04v-4.248l-3.024 4.248h3.024z" fill="#F24E1E"/><path d="M291.85 117.18c-1.164 0-2.142-.18-2.934-.54-.78-.36-1.362-.804-1.746-1.332-.372-.54-.57-1.08-.594-1.62 0-.108.036-.198.108-.27a.43.43 0 01.288-.108h2.358c.132 0 .24.024.324.072a.667.667 0 01.234.27c.24.624.894.936 1.962.936.612 0 1.086-.138 1.422-.414.348-.288.522-.678.522-1.17 0-.96-.624-1.44-1.872-1.44h-1.998a.48.48 0 01-.324-.126.48.48 0 01-.126-.324v-1.008c0-.264.096-.468.288-.612l2.952-2.502h-5.004a.48.48 0 01-.324-.126.48.48 0 01-.126-.324v-1.692c0-.132.042-.24.126-.324a.48.48 0 01.324-.126h8.28c.132 0 .24.042.324.126a.41.41 0 01.144.324v1.53c0 .228-.096.426-.288.594l-2.736 2.538.126.036c1.104.144 1.974.516 2.61 1.116.648.588.972 1.434.972 2.538 0 .804-.228 1.506-.684 2.106-.456.6-1.086 1.062-1.89 1.386-.804.324-1.71.486-2.718.486zm7.761-.18a.502.502 0 01-.342-.126.439.439 0 01-.126-.324v-1.278c0-.36.15-.654.45-.882l1.872-1.836a92.289 92.289 0 002.484-1.962c.564-.468.99-.894 1.278-1.278.288-.384.432-.75.432-1.098 0-.948-.468-1.422-1.404-1.422-.492 0-.87.15-1.134.45-.264.288-.438.654-.522 1.098-.072.276-.276.414-.612.414h-2.25a.366.366 0 01-.378-.378 4.16 4.16 0 01.63-2.106c.408-.648.978-1.158 1.71-1.53.744-.384 1.596-.576 2.556-.576 1.008 0 1.872.162 2.592.486.72.324 1.266.78 1.638 1.368.372.588.558 1.272.558 2.052 0 .84-.264 1.608-.792 2.304-.516.684-1.308 1.428-2.376 2.232l-1.656 1.674h4.626c.132 0 .24.042.324.126a.41.41 0 01.144.324v1.818a.41.41 0 01-.144.324.439.439 0 01-.324.126h-9.234zm15.652-.594a.48.48 0 01-.324-.126.48.48 0 01-.126-.324v-3.294h-3.204a.502.502 0 01-.342-.126.439.439 0 01-.126-.324v-1.314c0-.132.042-.24.126-.324a.467.467 0 01.342-.144h3.204v-3.186c0-.132.042-.24.126-.324a.48.48 0 01.324-.126h1.476c.132 0 .24.042.324.126a.439.439 0 01.126.324v3.186h3.186a.41.41 0 01.324.144.439.439 0 01.126.324v1.314c0 .132-.042.24-.126.324a.439.439 0 01-.324.126h-3.186v3.294a.48.48 0 01-.126.324.439.439 0 01-.324.126h-1.476z" fill="#46CCEE"/><path d="M204.839 130.092c-.248-1.555-1.466-2.464-3.004-2.464-1.882 0-3.27 1.41-3.27 3.736 0 2.326 1.381 3.735 3.27 3.735 1.598 0 2.767-1.001 3.004-2.439l-1.107-.004c-.189.931-.97 1.442-1.89 1.442-1.246 0-2.187-.955-2.187-2.734 0-1.765.937-2.735 2.191-2.735.927 0 1.704.522 1.886 1.463h1.107zm3.526 5.018c1.538 0 2.542-1.126 2.542-2.812 0-1.698-1.004-2.824-2.542-2.824-1.538 0-2.543 1.126-2.543 2.824 0 1.686 1.005 2.812 2.543 2.812zm.003-.891c-1.005 0-1.473-.877-1.473-1.925 0-1.044.468-1.932 1.473-1.932.998 0 1.467.888 1.467 1.932 0 1.048-.469 1.925-1.467 1.925zm4.786-2.458c0-.87.533-1.367 1.272-1.367.721 0 1.157.472 1.157 1.264V135h1.062v-3.469c0-1.35-.742-2.057-1.857-2.057-.82 0-1.357.38-1.609.959h-.067v-.888h-1.019V135h1.061v-3.239zm9.386-2.216h-1.14l-1.378 4.198h-.056l-1.382-4.198h-1.14l1.982 5.455h1.136l1.978-5.455zm3.154 5.565c1.189 0 2.031-.586 2.272-1.474l-1.005-.181c-.191.515-.653.778-1.257.778-.909 0-1.52-.59-1.548-1.641h3.878v-.376c0-1.971-1.179-2.742-2.415-2.742-1.52 0-2.521 1.158-2.521 2.834 0 1.694.987 2.802 2.596 2.802zm-1.535-3.313c.043-.774.604-1.445 1.467-1.445.824 0 1.364.61 1.367 1.445h-2.834zm5.053 3.203h1.062v-3.331c0-.714.55-1.229 1.303-1.229.22 0 .469.039.554.064v-1.015a4.11 4.11 0 00-.451-.025c-.639 0-1.186.362-1.385.948h-.057v-.867h-1.026V135zm7.925-4.123c-.22-.849-.884-1.403-2.063-1.403-1.232 0-2.106.65-2.106 1.616 0 .774.469 1.289 1.492 1.517l.923.202c.525.117.77.352.77.692 0 .423-.451.753-1.147.753-.635 0-1.044-.273-1.171-.809l-1.027.156c.178.966.98 1.509 2.205 1.509 1.318 0 2.231-.699 2.231-1.687 0-.77-.49-1.246-1.492-1.477l-.866-.199c-.6-.142-.86-.344-.856-.714-.004-.419.451-.717 1.055-.717.66 0 .965.366 1.09.732l.962-.171zm1.274 4.123h1.062v-5.455h-1.062V135zm.536-6.296c.366 0 .671-.284.671-.632 0-.348-.305-.636-.671-.636-.369 0-.671.288-.671.636 0 .348.302.632.671.632zm4.252 6.406c1.538 0 2.542-1.126 2.542-2.812 0-1.698-1.004-2.824-2.542-2.824-1.538 0-2.543 1.126-2.543 2.824 0 1.686 1.005 2.812 2.543 2.812zm.003-.891c-1.005 0-1.473-.877-1.473-1.925 0-1.044.468-1.932 1.473-1.932.998 0 1.467.888 1.467 1.932 0 1.048-.469 1.925-1.467 1.925zm4.786-2.458c0-.87.533-1.367 1.272-1.367.721 0 1.157.472 1.157 1.264V135h1.062v-3.469c0-1.35-.742-2.057-1.857-2.057-.82 0-1.357.38-1.609.959h-.067v-.888h-1.019V135h1.061v-3.239zm9.003-.884c-.221-.849-.885-1.403-2.064-1.403-1.232 0-2.105.65-2.105 1.616 0 .774.468 1.289 1.491 1.517l.923.202c.526.117.771.352.771.692 0 .423-.451.753-1.147.753-.636 0-1.044-.273-1.172-.809l-1.026.156c.177.966.98 1.509 2.205 1.509 1.317 0 2.23-.699 2.23-1.687 0-.77-.49-1.246-1.491-1.477l-.867-.199c-.6-.142-.859-.344-.856-.714-.003-.419.451-.717 1.055-.717.661 0 .966.366 1.09.732l.963-.171zm36.125 57.487c0-2.326-1.392-3.736-3.274-3.736-1.889 0-3.277 1.41-3.277 3.736 0 2.322 1.388 3.735 3.277 3.735 1.882 0 3.274-1.409 3.274-3.735zm-1.086 0c0 1.772-.938 2.734-2.188 2.734-1.253 0-2.187-.962-2.187-2.734s.934-2.735 2.187-2.735c1.25 0 2.188.963 2.188 2.735zm2.369 5.681h1.062v-2.894h.064c.192.348.582.956 1.577.956 1.321 0 2.28-1.059 2.28-2.824 0-1.768-.973-2.809-2.291-2.809-1.012 0-1.378.618-1.566.956h-.089v-.885h-1.037v7.5zm1.041-4.772c0-1.14.497-1.897 1.424-1.897.962 0 1.445.814 1.445 1.897 0 1.093-.497 1.928-1.445 1.928-.913 0-1.424-.781-1.424-1.928zm7.677-2.728h-1.118v-1.306h-1.062v1.306h-.799v.853h.799v3.221c-.004.99.753 1.47 1.591 1.452.337-.004.565-.067.689-.114l-.192-.877c-.071.014-.202.046-.373.046-.344 0-.653-.113-.653-.728v-3h1.118v-.853zm4.203 1.922h-3.224v.919h3.224v-.919zm1.415 3.533h1.062v-5.455h-1.062V192zm.536-6.296c.366 0 .672-.284.672-.632 0-.348-.306-.636-.672-.636-.369 0-.671.288-.671.636 0 .348.302.632.671.632zm3.016 3.057c0-.87.533-1.367 1.272-1.367.72 0 1.157.472 1.157 1.264V192h1.062v-3.469c0-1.35-.742-2.057-1.857-2.057-.821 0-1.357.38-1.609.959h-.067v-.888h-1.02V192h1.062v-3.239zm9.002-.884c-.22-.849-.884-1.403-2.063-1.403-1.232 0-2.106.65-2.106 1.616 0 .774.469 1.289 1.492 1.517l.923.202c.526.117.771.352.771.692 0 .423-.451.753-1.147.753-.636 0-1.044-.273-1.172-.809l-1.026.156c.177.966.98 1.509 2.205 1.509 1.317 0 2.23-.699 2.23-1.687 0-.77-.49-1.246-1.492-1.477l-.866-.199c-.6-.142-.859-.344-.856-.714-.003-.419.451-.717 1.055-.717.66 0 .966.366 1.09.732l.962-.171zM201.153 192c2.216 0 3.498-1.374 3.498-3.647 0-2.262-1.282-3.626-3.423-3.626h-2.429V192h2.354zm-1.257-.959v-5.355h1.265c1.59 0 2.411.952 2.411 2.667 0 1.722-.821 2.688-2.479 2.688h-1.197zm6.035.959h1.061v-5.455h-1.061V192zm.536-6.296c.366 0 .671-.284.671-.632 0-.348-.305-.636-.671-.636-.37 0-.671.288-.671.636 0 .348.301.632.671.632zm1.954 6.296h1.062v-3.331c0-.714.55-1.229 1.303-1.229.22 0 .469.039.554.064v-1.015a4.11 4.11 0 00-.451-.025c-.639 0-1.186.362-1.385.948h-.057v-.867h-1.026V192zm5.993.11c1.19 0 2.031-.586 2.273-1.474l-1.005-.181c-.192.515-.653.778-1.257.778-.909 0-1.52-.59-1.548-1.641h3.877v-.376c0-1.971-1.179-2.742-2.414-2.742-1.52 0-2.522 1.158-2.522 2.834 0 1.694.988 2.802 2.596 2.802zm-1.534-3.313c.043-.774.604-1.445 1.467-1.445.824 0 1.363.61 1.367 1.445h-2.834zm7.35 3.313c1.289 0 2.124-.774 2.241-1.836h-1.033c-.135.59-.594.938-1.201.938-.898 0-1.477-.75-1.477-1.939 0-1.169.589-1.904 1.477-1.904.675 0 1.087.426 1.201.938h1.033c-.114-1.101-1.012-1.833-2.252-1.833-1.537 0-2.531 1.158-2.531 2.824 0 1.644.958 2.812 2.542 2.812zm5.923-5.565h-1.119v-1.306h-1.062v1.306h-.799v.853h.799v3.221c-.003.99.753 1.47 1.591 1.452.337-.004.565-.067.689-.114l-.192-.877c-.071.014-.202.046-.373.046-.344 0-.653-.113-.653-.728v-3h1.119v-.853zm4.882-1.818h-1.061V192h1.061v-7.273zm1.429 7.273h1.062v-5.455h-1.062V192zm.536-6.296c.366 0 .671-.284.671-.632 0-.348-.305-.636-.671-.636-.369 0-.671.288-.671.636 0 .348.302.632.671.632zm3.016 3.057c0-.87.532-1.367 1.271-1.367.721 0 1.158.472 1.158 1.264V192h1.062v-3.469c0-1.35-.743-2.057-1.858-2.057-.82 0-1.356.38-1.608.959h-.068v-.888h-1.019V192h1.062v-3.239zm4.915 3.239h1.061v-1.935l.529-.529 1.854 2.464h1.303l-2.358-3.114 2.209-2.341h-1.271l-2.173 2.309h-.093v-4.127h-1.061V192zm9.653-4.123c-.22-.849-.884-1.403-2.063-1.403-1.232 0-2.106.65-2.106 1.616 0 .774.469 1.289 1.492 1.517l.923.202c.526.117.771.352.771.692 0 .423-.451.753-1.147.753-.636 0-1.044-.273-1.172-.809l-1.026.156c.177.966.98 1.509 2.205 1.509 1.317 0 2.23-.699 2.23-1.687 0-.77-.49-1.246-1.492-1.477l-.866-.199c-.6-.142-.859-.344-.856-.714-.003-.419.451-.717 1.055-.717.66 0 .966.366 1.09.732l.962-.171zm36.215-60.15V135h1.044v-5.266h.068l2.144 5.255h.867l2.145-5.252h.067V135h1.044v-7.273h-1.331l-2.316 5.654h-.085l-2.315-5.654h-1.332zm15.292 3.637c0-2.326-1.392-3.736-3.274-3.736-1.889 0-3.278 1.41-3.278 3.736 0 2.322 1.389 3.735 3.278 3.735a3.28 3.28 0 001.296-.252l.622.806h1.122l-.98-1.278c.752-.636 1.214-1.673 1.214-3.011zm-3.643 1.278l1.033 1.357c-.206.067-.43.099-.664.099-1.254 0-2.188-.962-2.188-2.734s.934-2.735 2.188-2.735c1.25 0 2.187.963 2.187 2.735 0 .994-.294 1.736-.777 2.191l-.7-.913h-1.079zm5.011 2.358h4.393v-.945h-3.296v-6.328h-1.097V135zm9.647-4.123c-.22-.849-.884-1.403-2.063-1.403-1.233 0-2.106.65-2.106 1.616 0 .774.469 1.289 1.491 1.517l.924.202c.525.117.77.352.77.692 0 .423-.451.753-1.147.753-.636 0-1.044-.273-1.172-.809l-1.026.156c.178.966.98 1.509 2.205 1.509 1.318 0 2.23-.699 2.23-1.687 0-.77-.49-1.246-1.491-1.477l-.867-.199c-.6-.142-.859-.344-.855-.714-.004-.419.451-.717 1.054-.717.661 0 .966.366 1.09.732l.963-.171z" fill="#000"/><path fill="#6846EE" d="M96 124h16v70H96zm21 12h16v58h-16zm21-30h16v88h-16zm21 18h16v70h-16z"/><path d="M103.224 89.91a.509.509 0 01-.322-.098.962.962 0 01-.21-.224l-.476-.63c-.355.121-.77.182-1.246.182-1.316 0-2.352-.322-3.108-.966-.747-.644-1.143-1.591-1.19-2.842-.01-.27-.014-.672-.014-1.204 0-.541.005-.947.014-1.218.037-1.232.439-2.18 1.204-2.842.775-.672 1.806-1.008 3.094-1.008 1.288 0 2.319.336 3.094 1.008.775.663 1.181 1.61 1.218 2.842.019.541.028.947.028 1.218 0 .261-.009.663-.028 1.204-.037 1.148-.373 2.044-1.008 2.688l1.022 1.456a.33.33 0 01.042.14v.028a.226.226 0 01-.084.182.268.268 0 01-.196.084h-1.834zm-2.254-2.786c.513 0 .919-.154 1.218-.462.308-.308.471-.78.49-1.414.019-.541.028-.924.028-1.148 0-.243-.009-.625-.028-1.148-.019-.635-.182-1.106-.49-1.414-.299-.308-.705-.462-1.218-.462-.504 0-.91.154-1.218.462-.299.308-.457.78-.476 1.414-.01.261-.014.644-.014 1.148 0 .495.005.877.014 1.148.019.635.177 1.106.476 1.414.299.308.705.462 1.218.462zm9.967 2.016c-.906 0-1.666-.14-2.282-.42-.607-.28-1.06-.625-1.358-1.036-.29-.42-.444-.84-.462-1.26 0-.084.028-.154.084-.21a.334.334 0 01.224-.084h1.834a.51.51 0 01.252.056.521.521 0 01.182.21c.186.485.695.728 1.526.728.476 0 .844-.107 1.106-.322.27-.224.406-.527.406-.91 0-.747-.486-1.12-1.456-1.12h-1.554a.37.37 0 01-.252-.098.37.37 0 01-.098-.252v-.784c0-.205.074-.364.224-.476l2.296-1.946h-3.892a.37.37 0 01-.252-.098.37.37 0 01-.098-.252V79.55c0-.103.032-.187.098-.252a.37.37 0 01.252-.098h6.44c.102 0 .186.033.252.098.074.065.112.15.112.252v1.19a.597.597 0 01-.224.462l-2.128 1.974.098.028c.858.112 1.535.401 2.03.868.504.457.756 1.115.756 1.974 0 .625-.178 1.171-.532 1.638-.355.467-.845.826-1.47 1.078-.626.252-1.33.378-2.114.378zm9.829-.14a.37.37 0 01-.252-.098.37.37 0 01-.098-.252v-9.1c0-.103.032-.187.098-.252a.37.37 0 01.252-.098h3.808c1.222 0 2.174.28 2.856.84.69.55 1.036 1.335 1.036 2.352 0 .653-.154 1.209-.462 1.666a2.953 2.953 0 01-1.274 1.05l1.918 3.444a.348.348 0 01.042.154.296.296 0 01-.098.21.27.27 0 01-.196.084h-1.862c-.271 0-.462-.126-.574-.378l-1.596-3.08h-1.428v3.108a.322.322 0 01-.112.252.343.343 0 01-.252.098h-1.806zm3.78-5.446c.429 0 .756-.103.98-.308.224-.215.336-.509.336-.882s-.112-.667-.336-.882c-.215-.224-.542-.336-.98-.336h-1.61v2.408h1.61zm9.08 5.586c-1.12 0-2.002-.303-2.646-.91-.644-.607-.98-1.489-1.008-2.646v-.49c.037-1.101.378-1.96 1.022-2.576.653-.625 1.526-.938 2.618-.938.793 0 1.46.163 2.002.49a3 3 0 011.232 1.316c.28.56.42 1.204.42 1.932v.336a.375.375 0 01-.098.252.343.343 0 01-.252.098h-4.48v.098c.018.439.126.793.322 1.064.196.27.48.406.854.406.233 0 .424-.047.574-.14.149-.103.284-.224.406-.364.084-.103.149-.163.196-.182a.585.585 0 01.252-.042h1.736c.084 0 .154.028.21.084a.228.228 0 01.098.196c0 .243-.14.523-.42.84-.271.317-.668.593-1.19.826-.523.233-1.139.35-1.848.35zm1.176-4.522v-.028c0-.457-.108-.817-.322-1.078-.206-.27-.495-.406-.868-.406-.364 0-.654.135-.868.406-.206.261-.308.62-.308 1.078v.028h2.366zm7.192 4.522c-.756 0-1.39-.107-1.904-.322-.504-.215-.877-.471-1.12-.77-.242-.299-.364-.565-.364-.798 0-.093.033-.168.098-.224a.357.357 0 01.238-.098h1.596c.056 0 .108.023.154.07.112.075.196.135.252.182.206.15.383.261.532.336.159.065.35.098.574.098.271 0 .49-.051.658-.154a.52.52 0 00.266-.462.508.508 0 00-.14-.378c-.084-.093-.252-.182-.504-.266-.252-.093-.634-.191-1.148-.294-.774-.159-1.372-.415-1.792-.77-.41-.364-.616-.85-.616-1.456 0-.383.122-.747.364-1.092.243-.345.602-.625 1.078-.84.486-.215 1.06-.322 1.722-.322.663 0 1.242.103 1.736.308.495.205.868.457 1.12.756.262.29.392.555.392.798a.306.306 0 01-.098.224.265.265 0 01-.21.098h-1.456a.357.357 0 01-.21-.07 2.18 2.18 0 01-.322-.21 2.449 2.449 0 00-.448-.28 1.22 1.22 0 00-.518-.098c-.242 0-.438.056-.588.168a.53.53 0 00-.21.434c0 .14.038.257.112.35.084.093.252.187.504.28.262.084.644.173 1.148.266.906.159 1.564.439 1.974.84.42.401.63.873.63 1.414 0 .69-.308 1.246-.924 1.666-.616.41-1.474.616-2.576.616zm7.837 0c-.822 0-1.484-.275-1.988-.826-.504-.56-.756-1.34-.756-2.338V82.07c0-.103.032-.187.098-.252a.34.34 0 01.252-.098h1.75c.102 0 .186.033.252.098.074.065.112.15.112.252v3.822c0 .915.406 1.372 1.218 1.372.392 0 .7-.121.924-.364.224-.243.336-.579.336-1.008V82.07c0-.103.032-.187.098-.252a.37.37 0 01.252-.098h1.75c.102 0 .186.033.252.098.065.065.098.15.098.252v6.58a.375.375 0 01-.098.252.343.343 0 01-.252.098h-1.624a.37.37 0 01-.252-.098.37.37 0 01-.098-.252v-.532c-.486.681-1.26 1.022-2.324 1.022zm7.064-.14a.374.374 0 01-.252-.098.375.375 0 01-.098-.252v-9.24c0-.103.033-.187.098-.252a.374.374 0 01.252-.098h1.652a.34.34 0 01.252.098.34.34 0 01.098.252v9.24a.338.338 0 01-.098.252.34.34 0 01-.252.098h-1.652zm7.8 0c-1.932 0-2.898-.92-2.898-2.758v-2.688h-1.092a.39.39 0 01-.266-.098.342.342 0 01-.098-.252V82.07c0-.103.033-.187.098-.252a.39.39 0 01.266-.098h1.092v-2.31c0-.103.033-.187.098-.252a.374.374 0 01.252-.098h1.624a.34.34 0 01.252.098c.065.065.098.15.098.252v2.31h1.75a.34.34 0 01.252.098c.075.065.112.15.112.252v1.134a.318.318 0 01-.112.252.34.34 0 01-.252.098h-1.75v2.492c0 .69.266 1.036.798 1.036h1.078a.34.34 0 01.252.098c.065.065.098.15.098.252v1.218a.375.375 0 01-.098.252.34.34 0 01-.252.098h-1.302zm6.227.14c-.756 0-1.39-.107-1.904-.322-.504-.215-.877-.471-1.12-.77-.242-.299-.364-.565-.364-.798 0-.093.033-.168.098-.224a.357.357 0 01.238-.098h1.596c.056 0 .108.023.154.07.112.075.196.135.252.182.206.15.383.261.532.336.159.065.35.098.574.098.271 0 .49-.051.658-.154a.52.52 0 00.266-.462.508.508 0 00-.14-.378c-.084-.093-.252-.182-.504-.266-.252-.093-.634-.191-1.148-.294-.774-.159-1.372-.415-1.792-.77-.41-.364-.616-.85-.616-1.456 0-.383.122-.747.364-1.092.243-.345.602-.625 1.078-.84.486-.215 1.06-.322 1.722-.322.663 0 1.242.103 1.736.308.495.205.868.457 1.12.756.262.29.392.555.392.798a.306.306 0 01-.098.224.265.265 0 01-.21.098h-1.456a.357.357 0 01-.21-.07 2.18 2.18 0 01-.322-.21 2.449 2.449 0 00-.448-.28 1.22 1.22 0 00-.518-.098c-.242 0-.438.056-.588.168a.53.53 0 00-.21.434c0 .14.038.257.112.35.084.093.252.187.504.28.262.084.644.173 1.148.266.906.159 1.564.439 1.974.84.42.401.63.873.63 1.414 0 .69-.308 1.246-.924 1.666-.616.41-1.474.616-2.576.616z" fill="#1E1E1E"/><defs><filter id="filter0_d" x="0" y="0" width="310.082" height="197.894" filterUnits="userSpaceOnUse" color-interpolation-filters="sRGB"><feFlood flood-opacity="0" result="BackgroundImageFix"/><feColorMatrix in="SourceAlpha" values="0 0 0 0 0 0 0 0 0 0 0 0 0 0 0 0 0 0 127 0"/><feOffset/><feGaussianBlur stdDeviation="5"/><feColorMatrix values="0 0 0 0 0.603056 0 0 0 0 0.630668 0 0 0 0 0.695833 0 0 0 0.15 0"/><feBlend in2="BackgroundImageFix" result="effect1_dropShadow"/><feBlend in="SourceGraphic" in2="effect1_dropShadow" result="shape"/></filter><filter id="filter1_d" x="60" y="47" width="298" height="175" filterUnits="userSpaceOnUse" color-interpolation-filters="sRGB"><feFlood flood-opacity="0" result="BackgroundImageFix"/><feColorMatrix in="SourceAlpha" values="0 0 0 0 0 0 0 0 0 0 0 0 0 0 0 0 0 0 127 0"/><feOffset/><feGaussianBlur stdDeviation="5"/><feColorMatrix values="0 0 0 0 0.603056 0 0 0 0 0.630668 0 0 0 0 0.695833 0 0 0 0.15 0"/><feBlend in2="BackgroundImageFix" result="effect1_dropShadow"/><feBlend in="SourceGraphic" in2="effect1_dropShadow" result="shape"/></filter></defs></svg>