<svg width="507" height="373" fill="none" xmlns="http://www.w3.org/2000/svg"><path d="M397.889 125.722l-76.776 64.561-40.408-33.98-60.612 50.97" stroke="#4678EE" stroke-width="4.929" stroke-linecap="round" stroke-linejoin="round"/><path d="M349.404 125.722h48.49v40.775" stroke="#4678EE" stroke-width="4.929" stroke-linecap="round" stroke-linejoin="round"/><g filter="url(#filter0_d)"><rect x="30" y="255" width="196.271" height="76.594" rx="5.984" fill="#fff"/></g><path d="M40.584 318.478v-11.222h5.627a4.08 4.08 0 011.507.272c.47.171.871.412 1.202.722.332.31.588.684.77 1.122.192.427.288.898.288 1.411 0 .502-.096.967-.288 1.394a3.16 3.16 0 01-.786 1.09c-.33.31-.726.551-1.186.722a4.29 4.29 0 01-1.507.256H42.91v4.233h-2.325zm5.37-9.218H42.91v3.062h3.046c.502 0 .903-.139 1.202-.417.31-.278.465-.647.465-1.106 0-.46-.155-.829-.465-1.107-.3-.288-.7-.432-1.202-.432zm7.683 9.362c-.898 0-1.63-.235-2.196-.706-.567-.48-.85-1.1-.85-1.859 0-.791.304-1.411.914-1.86.609-.449 1.448-.673 2.517-.673a6.69 6.69 0 012.036.321v-.594c0-.481-.15-.844-.45-1.09-.299-.246-.737-.368-1.314-.368-.353 0-.737.058-1.154.176a9.21 9.21 0 00-1.395.513l-.801-1.619a10.6 10.6 0 011.891-.674 7.803 7.803 0 011.828-.224c1.122 0 1.993.272 2.613.818.63.534.946 1.293.946 2.276v5.419h-2.164v-.578a3.876 3.876 0 01-1.123.545 4.423 4.423 0 01-1.298.177zm-.946-2.613c0 .32.139.577.417.769.278.182.646.273 1.106.273.363 0 .695-.043.994-.128.31-.097.593-.23.85-.401v-1.251a3.686 3.686 0 00-.85-.224 4.964 4.964 0 00-.914-.08c-.502 0-.898.096-1.186.288a.855.855 0 00-.417.754zm11.04 2.517a4.195 4.195 0 01-1.667-.337 4.341 4.341 0 01-1.346-.914 4.5 4.5 0 01-.898-1.346 4.413 4.413 0 01-.32-1.684c0-.588.111-1.138.336-1.651a4.29 4.29 0 01.914-1.363 4.088 4.088 0 011.362-.897 4.218 4.218 0 011.684-.337c.416 0 .812.059 1.186.176.385.118.743.284 1.074.497v-.545h2.164v8.353c0 1.1-.358 1.95-1.074 2.549-.705.598-1.726.897-3.062.897a8.868 8.868 0 01-1.86-.192 6.869 6.869 0 01-1.619-.561l.77-1.716c.46.225.908.391 1.346.497.439.118.877.177 1.315.177.652 0 1.144-.145 1.475-.433.342-.278.513-.689.513-1.234v-.69a3.758 3.758 0 01-1.09.561 3.756 3.756 0 01-1.203.193zm-2.068-4.281c0 .674.23 1.245.69 1.716.47.47 1.042.705 1.715.705a3 3 0 001.09-.192 2.81 2.81 0 00.866-.561v-3.287a2.392 2.392 0 00-.866-.545 2.826 2.826 0 00-1.074-.208 2.36 2.36 0 00-1.715.689 2.265 2.265 0 00-.706 1.683zm15.774 3.191a5.351 5.351 0 01-1.587.913c-.534.193-1.133.289-1.795.289a4.698 4.698 0 01-1.78-.337 4.585 4.585 0 01-1.427-.914 4.384 4.384 0 01-.946-1.362 4.388 4.388 0 01-.336-1.716c0-.598.107-1.159.32-1.683.225-.534.53-.994.914-1.379a4.17 4.17 0 011.363-.929 4.334 4.334 0 011.7-.337 3.81 3.81 0 011.634.353c.513.224.951.534 1.315.929a4.1 4.1 0 01.865 1.427 4.83 4.83 0 01.321 1.78v.577h-6.22c.15.524.438.946.866 1.266.427.321.93.481 1.507.481a2.97 2.97 0 001.026-.176c.32-.118.593-.283.817-.497l1.443 1.315zm-3.623-5.643c-.502 0-.935.154-1.298.464-.364.3-.615.706-.754 1.219h4.088a2.351 2.351 0 00-.77-1.203 1.858 1.858 0 00-1.266-.48zm7.942 6.685l-3.591-8.353h2.389l2.292 5.563 2.276-5.563h2.341l-3.59 8.353h-2.117zm7.664-9.347c-.342 0-.636-.123-.882-.368a1.204 1.204 0 01-.368-.882c0-.342.123-.636.368-.882.246-.246.54-.369.882-.369.342 0 .636.123.882.369s.369.54.369.882a1.2 1.2 0 01-.37.882 1.202 1.202 0 01-.88.368zm1.106.994v8.353H88.33v-8.353h2.196zm9.205 7.311a5.351 5.351 0 01-1.588.913c-.534.193-1.133.289-1.795.289-.63 0-1.224-.112-1.78-.337a4.585 4.585 0 01-1.426-.914 4.384 4.384 0 01-.946-1.362 4.388 4.388 0 01-.337-1.716c0-.598.107-1.159.32-1.683.225-.534.53-.994.915-1.379a4.17 4.17 0 011.362-.929 4.334 4.334 0 011.7-.337 3.81 3.81 0 011.635.353c.513.224.95.534 1.314.929a4.1 4.1 0 01.866 1.427c.214.545.321 1.138.321 1.78v.577h-6.22c.15.524.438.946.865 1.266.428.321.93.481 1.507.481a2.97 2.97 0 001.026-.176c.32-.118.593-.283.818-.497l1.443 1.315zm-3.624-5.643c-.502 0-.935.154-1.298.464-.364.3-.615.706-.754 1.219h4.088a2.351 2.351 0 00-.77-1.203 1.858 1.858 0 00-1.266-.48zm9.077 6.685h-2.116l-2.293-8.353h2.084l1.379 5.403 1.667-5.403h1.844l1.651 5.403 1.379-5.403h2.052l-2.309 8.353h-2.1l-1.619-5.339-1.619 5.339zm7.975-.994l1.09-1.459c.491.32.956.561 1.395.721.438.15.876.225 1.314.225.492 0 .882-.081 1.17-.241.3-.16.449-.374.449-.641a.608.608 0 00-.256-.513c-.161-.128-.422-.219-.786-.273l-1.603-.24c-.823-.128-1.453-.396-1.892-.802-.427-.406-.641-.946-.641-1.619 0-.801.315-1.443.946-1.924.631-.481 1.475-.721 2.533-.721a5.88 5.88 0 011.779.273 6.257 6.257 0 011.652.769l-1.058 1.411a6.366 6.366 0 00-1.315-.593 3.98 3.98 0 00-1.266-.209c-.396 0-.717.075-.962.225-.235.149-.353.347-.353.593 0 .224.086.401.257.529.181.117.475.203.881.256l1.603.241c.813.117 1.438.385 1.876.801.449.417.673.946.673 1.587 0 .396-.096.765-.288 1.107a2.75 2.75 0 01-.754.865 3.62 3.62 0 01-1.154.577 4.91 4.91 0 01-1.459.209 7.592 7.592 0 01-2.132-.289c-.663-.203-1.229-.491-1.699-.865z" fill="#9696A0"/><path d="M53.02 290.006c0 .682-.168 1.31-.5 1.885a4.806 4.806 0 01-1.386 1.499c-.575.409-1.272.735-2.09.977a9.653 9.653 0 01-2.634.341 9.873 9.873 0 01-3.656-.682c-1.136-.454-2.075-1.082-2.816-1.885l2.475-2.271c.606.636 1.196 1.075 1.772 1.317.59.243 1.317.364 2.18.364.878 0 1.582-.167 2.112-.5.545-.333.818-.78.818-1.34 0-.469-.235-.84-.705-1.113-.454-.272-1.09-.408-1.907-.408h-1.5v-2.93h1.114c.757 0 1.377-.182 1.862-.545.484-.379.727-.856.727-1.431 0-.515-.243-.931-.727-1.249-.47-.333-1.075-.5-1.817-.5-.757 0-1.416.137-1.976.409-.545.257-1.15.727-1.817 1.408l-2.498-2.248c.772-.863 1.734-1.537 2.884-2.022a8.823 8.823 0 013.543-.749c.894 0 1.719.114 2.476.341.757.212 1.4.514 1.93.908s.947.871 1.25 1.431c.302.56.454 1.173.454 1.839 0 .773-.197 1.484-.59 2.135a4.465 4.465 0 01-1.636 1.545c.817.318 1.461.779 1.93 1.385a3.25 3.25 0 01.727 2.089zm7.924-11.423v15.897h-3.679v-12.173l-3.293 1.318v-3.18l4.656-1.862h2.316zm2.228 13.013h3.793l-2.702 6.45h-2.749l1.658-6.45zm17.15-13.013v9.311h1.975v3.066h-1.975v3.52h-3.68v-3.52h-8.948v-2.975l8.335-9.402h4.293zm-8.426 9.311h4.746v-5.337l-4.746 5.337zm18.564 6.836c-1.075 0-2.067-.189-2.976-.567a6.753 6.753 0 01-2.293-1.636c-.636-.696-1.128-1.536-1.477-2.521-.348-.984-.522-2.066-.522-3.247 0-1.257.19-2.408.568-3.452.393-1.045.939-1.931 1.635-2.657a7.184 7.184 0 012.52-1.726c1-.409 2.098-.614 3.294-.614.924 0 1.847.167 2.77.5.924.318 1.681.734 2.272 1.249l-2.135 2.589a4.997 4.997 0 00-1.476-.84c-.5-.182-1.075-.273-1.726-.273-1.227 0-2.188.409-2.885 1.227-.68.802-1.067 1.976-1.158 3.52a5.306 5.306 0 011.84-1.227 5.81 5.81 0 012.294-.454c.817 0 1.567.121 2.248.364a5.332 5.332 0 011.749.999c.5.424.886.939 1.158 1.544a4.6 4.6 0 01.409 1.953 4.76 4.76 0 01-.477 2.112 5.01 5.01 0 01-1.272 1.658c-.53.47-1.173.841-1.93 1.113a7.353 7.353 0 01-2.43.386zm-.046-7.267c-.65 0-1.257.129-1.817.386a4.677 4.677 0 00-1.476 1.113c.242.817.644 1.468 1.204 1.953.56.484 1.211.727 1.953.727.772 0 1.408-.197 1.908-.591.514-.409.772-.916.772-1.522a1.81 1.81 0 00-.704-1.476c-.47-.393-1.083-.59-1.84-.59zm14.39 7.267c-1.075 0-2.067-.189-2.976-.567a6.76 6.76 0 01-2.293-1.636c-.636-.696-1.128-1.536-1.477-2.521-.348-.984-.522-2.066-.522-3.247 0-1.257.19-2.408.568-3.452.394-1.045.939-1.931 1.635-2.657a7.18 7.18 0 012.521-1.726c.999-.409 2.097-.614 3.293-.614.924 0 1.847.167 2.771.5.923.318 1.68.734 2.271 1.249l-2.135 2.589a4.99 4.99 0 00-1.476-.84c-.5-.182-1.075-.273-1.726-.273-1.227 0-2.188.409-2.885 1.227-.681.802-1.067 1.976-1.158 3.52a5.306 5.306 0 011.84-1.227 5.808 5.808 0 012.294-.454c.817 0 1.567.121 2.248.364a5.341 5.341 0 011.749.999c.499.424.885.939 1.158 1.544.272.591.409 1.242.409 1.953 0 .757-.159 1.461-.477 2.112a5.012 5.012 0 01-1.272 1.658c-.53.47-1.173.841-1.93 1.113a7.354 7.354 0 01-2.43.386zm-.046-7.267c-.651 0-1.257.129-1.817.386a4.677 4.677 0 00-1.476 1.113c.242.817.644 1.468 1.204 1.953.56.484 1.211.727 1.953.727.772 0 1.408-.197 1.908-.591.514-.409.772-.916.772-1.522a1.81 1.81 0 00-.704-1.476c-.47-.393-1.083-.59-1.84-.59z" fill="#19191D"/><path d="M207.575 296.151l-6.496 6.497-3.42-3.419-5.129 5.129" stroke="#787885" stroke-width="1.197" stroke-linecap="round" stroke-linejoin="round"/><path d="M203.473 296.151h4.103v4.104" stroke="#787885" stroke-width="1.197" stroke-linecap="round" stroke-linejoin="round"/><rect x="34.787" y="259.787" width="186.697" height="4.787" rx="2.394" fill="#EEBC46"/><g filter="url(#filter1_d)"><rect x="30" y="65" width="196.271" height="76.594" rx="5.984" fill="#fff"/></g><path d="M46.612 127.676l-3.88-7.455v8.257h-2.148v-11.222h2.982l3.078 6.027 3.078-6.027h2.982v11.222h-2.197v-8.241l-3.895 7.439zm19.555-4.809c0 .801-.155 1.555-.465 2.26a5.681 5.681 0 01-1.25 1.828l1.122 1.394-2.036.674-.737-.93a6.23 6.23 0 01-2.581.561 6.05 6.05 0 01-2.325-.449 5.991 5.991 0 01-1.891-1.218 5.994 5.994 0 01-1.25-1.844 5.67 5.67 0 01-.466-2.276c0-.802.155-1.555.465-2.261.31-.716.727-1.33 1.25-1.843a5.849 5.849 0 011.892-1.235 6.05 6.05 0 012.325-.449c.833 0 1.614.15 2.34.449a5.666 5.666 0 011.876 1.235 5.613 5.613 0 011.266 1.843 5.56 5.56 0 01.465 2.261zm-3.991 1.25l.85 1.042c.234-.299.416-.647.544-1.042.14-.395.209-.812.209-1.25a3.73 3.73 0 00-.273-1.443 3.423 3.423 0 00-.753-1.154 3.182 3.182 0 00-1.123-.77 3.477 3.477 0 00-1.41-.289c-.502 0-.973.097-1.411.289a3.387 3.387 0 00-1.122.77c-.31.32-.556.705-.738 1.154a3.73 3.73 0 00-.272 1.443c0 .513.09.994.272 1.442.182.449.428.839.738 1.171.32.32.695.577 1.122.769.438.182.909.273 1.41.273.204 0 .402-.016.594-.048.203-.032.39-.081.561-.145l-1.234-1.539 2.036-.673zm5.586 4.361v-11.222h2.325v9.17h6.14v2.052h-8.465zm9.217-.994l1.09-1.459c.492.32.957.561 1.395.721.438.15.876.225 1.314.225.492 0 .882-.081 1.17-.241.3-.16.45-.374.45-.641a.609.609 0 00-.257-.513c-.16-.128-.422-.219-.786-.273l-1.603-.24c-.823-.128-1.453-.396-1.891-.802-.428-.406-.642-.946-.642-1.619 0-.801.316-1.443.946-1.924.63-.481 1.475-.721 2.533-.721.61 0 1.203.091 1.78.273a6.261 6.261 0 011.65.769l-1.057 1.411a6.359 6.359 0 00-1.315-.593 3.98 3.98 0 00-1.266-.209c-.396 0-.716.075-.962.225-.235.149-.353.347-.353.593 0 .224.086.401.257.529.181.117.475.203.881.256l1.603.241c.813.117 1.438.385 1.876.801.45.417.674.946.674 1.587 0 .396-.097.765-.29 1.107a2.75 2.75 0 01-.752.865 3.63 3.63 0 01-1.155.577 4.909 4.909 0 01-1.459.209c-.758 0-1.47-.096-2.132-.289-.662-.203-1.229-.491-1.7-.865z" fill="#9696A0"/><path d="M40.982 97.122l.386-8.54h10.63v3.067h-7.654l-.137 3.111a7.39 7.39 0 011.363-.318 9.35 9.35 0 011.476-.113c1.756 0 3.172.454 4.247 1.362 1.075.894 1.613 2.075 1.613 3.543a5.053 5.053 0 01-1.863 3.975c-.59.484-1.302.863-2.135 1.135-.817.258-1.726.386-2.725.386a9.936 9.936 0 01-3.293-.545 8.415 8.415 0 01-2.748-1.59l2.203-2.498c.681.56 1.325.962 1.93 1.204.606.227 1.28.341 2.022.341.863 0 1.552-.205 2.066-.614.515-.408.773-.946.773-1.612 0-.651-.288-1.173-.864-1.567-.56-.409-1.279-.613-2.157-.613-.44 0-.893.053-1.363.159-.47.106-.908.257-1.317.454l-2.453-.727zm13.746 4.474h3.793l-2.703 6.45H53.07l1.658-6.45zm11.176 3.134c-.954 0-1.84-.113-2.657-.34-.803-.243-1.491-.568-2.067-.977a4.45 4.45 0 01-1.317-1.499 4.006 4.006 0 01-.477-1.93c0-.772.227-1.477.681-2.112a4.62 4.62 0 011.817-1.5 4.667 4.667 0 01-1.476-1.453 3.77 3.77 0 01-.545-1.976c0-.65.151-1.256.454-1.817a4.75 4.75 0 011.272-1.476c.53-.409 1.166-.727 1.908-.954a7.638 7.638 0 012.384-.363c.863 0 1.666.121 2.408.363.742.228 1.378.546 1.907.954.546.41.97.901 1.272 1.476a3.62 3.62 0 01.477 1.817c0 .712-.189 1.37-.568 1.976a4.444 4.444 0 01-1.453 1.454 4.45 4.45 0 011.794 1.499c.47.635.704 1.34.704 2.112 0 .696-.159 1.34-.477 1.93a4.36 4.36 0 01-1.34 1.499c-.56.409-1.249.734-2.066.977a9.66 9.66 0 01-2.635.34zm0-9.675c.697 0 1.272-.181 1.726-.545.47-.363.704-.802.704-1.317 0-.53-.234-.969-.704-1.317-.454-.363-1.03-.545-1.726-.545s-1.28.182-1.749.545c-.454.348-.68.787-.68 1.317 0 .515.226.954.68 1.317.47.364 1.053.545 1.75.545zm0 6.677c.818 0 1.492-.181 2.021-.545.53-.378.795-.855.795-1.43 0-.576-.265-1.045-.795-1.409-.53-.378-1.203-.567-2.02-.567-.819 0-1.492.189-2.022.567-.53.364-.795.833-.795 1.409 0 .575.265 1.052.795 1.43.53.364 1.203.545 2.021.545zm7.829 2.748v-2.566l6.382-5.541c.575-.515.991-.985 1.249-1.408.272-.424.408-.871.408-1.34 0-.606-.242-1.106-.726-1.5-.485-.408-1.098-.612-1.84-.612s-1.438.151-2.09.454c-.635.303-1.34.802-2.112 1.499l-2.043-2.453c.953-.863 1.968-1.514 3.043-1.953a8.606 8.606 0 013.338-.681c.894 0 1.711.12 2.453.363.742.242 1.37.583 1.885 1.022.53.439.939.969 1.226 1.59.303.62.455 1.302.455 2.044 0 .878-.235 1.71-.704 2.498-.455.772-1.204 1.612-2.249 2.52l-3.497 2.998h6.609v3.066H73.733zm18.895-16.17c1.075 0 2.06.197 2.953.59a6.45 6.45 0 012.316 1.613c.636.697 1.128 1.537 1.476 2.521.349.984.523 2.067.523 3.248 0 1.257-.197 2.407-.59 3.452-.38 1.045-.917 1.938-1.613 2.68-.697.727-1.545 1.294-2.544 1.703-.984.409-2.074.613-3.27.613a8.465 8.465 0 01-2.771-.477c-.924-.333-1.68-.757-2.271-1.271l2.135-2.589c.469.378.954.658 1.453.84.515.181 1.098.272 1.749.272 1.226 0 2.18-.401 2.861-1.203.697-.818 1.09-1.999 1.181-3.543a5.578 5.578 0 01-1.84 1.249 6.063 6.063 0 01-2.293.431 6.67 6.67 0 01-2.248-.363 5.61 5.61 0 01-1.772-1 4.508 4.508 0 01-1.135-1.52 4.757 4.757 0 01-.41-1.977 4.8 4.8 0 01.455-2.09 5.366 5.366 0 011.272-1.68 5.874 5.874 0 011.93-1.09 7.19 7.19 0 012.453-.409zm.046 7.268c.65 0 1.249-.129 1.794-.386a4.61 4.61 0 001.499-1.113c-.243-.818-.644-1.469-1.204-1.953a2.895 2.895 0 00-1.953-.727c-.772 0-1.416.204-1.93.613-.5.394-.75.894-.75 1.5 0 .605.235 1.104.704 1.498.47.378 1.082.568 1.84.568z" fill="#19191D"/><path d="M207.575 106.151l-6.496 6.497-3.42-3.419-5.129 5.129" stroke="#787885" stroke-width="1.197" stroke-linecap="round" stroke-linejoin="round"/><path d="M203.473 106.151h4.103v4.104" stroke="#787885" stroke-width="1.197" stroke-linecap="round" stroke-linejoin="round"/><rect x="34.787" y="69.787" width="186.697" height="4.787" rx="2.394" fill="#6846EE"/><g filter="url(#filter2_d)"><rect x="30" y="160" width="196.271" height="76.594" rx="5.984" fill="#fff"/></g><path d="M46.195 221.49a3.77 3.77 0 001.651-.369 4.173 4.173 0 001.363-1.058l1.523 1.507c-.534.63-1.218 1.133-2.052 1.507a6.097 6.097 0 01-2.549.561 6.26 6.26 0 01-2.373-.449 5.991 5.991 0 01-1.891-1.218 5.666 5.666 0 01-1.267-1.828 5.766 5.766 0 01-.449-2.276c0-.813.155-1.571.465-2.277.31-.716.732-1.33 1.267-1.843a5.994 5.994 0 011.891-1.219 6.212 6.212 0 012.357-.449c.898 0 1.769.193 2.613.577.844.375 1.528.882 2.052 1.523l-1.571 1.555a4.013 4.013 0 00-1.395-1.122 3.752 3.752 0 00-3.126-.112 3.346 3.346 0 00-1.138.77c-.32.32-.572.705-.754 1.154a3.73 3.73 0 00-.272 1.443c0 .513.09.994.273 1.442.192.439.448.818.769 1.139.331.32.716.577 1.154.769.45.182.935.273 1.46.273zm5.054-2.181c0-.609.112-1.175.337-1.699.235-.534.55-.994.945-1.379a4.534 4.534 0 013.174-1.266c.62 0 1.203.112 1.748.337a4.265 4.265 0 011.41.929c.407.385.722.845.947 1.379.235.524.352 1.09.352 1.699 0 .61-.117 1.181-.352 1.716-.225.523-.54.978-.946 1.362a4.534 4.534 0 01-3.158 1.251c-.62 0-1.203-.112-1.748-.337a4.584 4.584 0 01-1.427-.914 4.384 4.384 0 01-.945-1.362 4.386 4.386 0 01-.337-1.716zm4.456 2.421c.642 0 1.187-.235 1.636-.705.449-.47.673-1.042.673-1.716 0-.684-.224-1.261-.673-1.731a2.177 2.177 0 00-1.636-.705c-.64 0-1.186.235-1.635.705-.449.47-.673 1.047-.673 1.731 0 .674.224 1.246.673 1.716.45.47.994.705 1.636.705zm5.807 1.748v-8.353h2.197v.658c.32-.268.673-.471 1.057-.61a3.84 3.84 0 011.283-.208c.962 0 1.753.31 2.373.93.62.62.93 1.416.93 2.388v5.195h-2.197v-4.874c0-.524-.16-.946-.48-1.266-.31-.321-.727-.481-1.251-.481-.364 0-.695.074-.994.224-.289.139-.53.342-.722.609v5.788h-2.196zm11.759 0l-3.591-8.353h2.388l2.293 5.563 2.276-5.563h2.34l-3.59 8.353H73.27zm13.747-1.042a5.35 5.35 0 01-1.587.913c-.534.193-1.133.289-1.795.289-.63 0-1.224-.112-1.78-.337a4.584 4.584 0 01-1.427-.914 4.384 4.384 0 01-.945-1.362 4.387 4.387 0 01-.337-1.716c0-.598.107-1.159.32-1.683.225-.534.53-.994.914-1.379a4.17 4.17 0 011.363-.929 4.334 4.334 0 011.7-.337 3.81 3.81 0 011.634.353c.513.224.952.534 1.315.929.374.396.663.872.866 1.427.213.545.32 1.138.32 1.78v.577h-6.22c.15.524.438.946.866 1.266.427.321.93.481 1.507.481a2.97 2.97 0 001.026-.176c.32-.118.593-.283.817-.497l1.443 1.315zm-3.623-5.643c-.502 0-.935.154-1.298.464-.364.3-.615.706-.754 1.219h4.088a2.35 2.35 0 00-.77-1.203 1.858 1.858 0 00-1.266-.48zm5.53 6.685v-8.353h2.196v.914c.267-.363.588-.636.962-.818a2.796 2.796 0 011.267-.288c.213.011.39.032.529.064.15.021.277.064.384.128v1.924a2.026 2.026 0 00-.529-.16 2.711 2.711 0 00-.593-.064c-.427 0-.823.106-1.186.32-.353.214-.63.524-.834.93v5.403h-2.196zm5.917-.994l1.09-1.459c.492.32.956.561 1.395.721.438.15.876.225 1.314.225.492 0 .882-.081 1.17-.241.3-.16.449-.374.449-.641a.608.608 0 00-.256-.513c-.16-.128-.422-.219-.786-.273l-1.603-.24c-.823-.128-1.453-.396-1.891-.802-.428-.406-.642-.946-.642-1.619 0-.801.316-1.443.946-1.924.63-.481 1.475-.721 2.533-.721.61 0 1.202.091 1.78.273a6.266 6.266 0 011.651.769l-1.058 1.411a6.368 6.368 0 00-1.315-.593 3.98 3.98 0 00-1.266-.209c-.396 0-.716.075-.962.225-.235.149-.353.347-.353.593 0 .224.086.401.257.529.181.117.475.203.881.256l1.603.241c.813.117 1.438.385 1.876.801.449.417.673.946.673 1.587 0 .396-.096.765-.288 1.107a2.75 2.75 0 01-.754.865 3.62 3.62 0 01-1.154.577 4.908 4.908 0 01-1.459.209c-.758 0-1.47-.096-2.132-.289-.662-.203-1.229-.491-1.7-.865zm9.67-8.353c-.342 0-.636-.123-.882-.368a1.203 1.203 0 01-.368-.882c0-.342.122-.636.368-.882s.54-.369.882-.369c.342 0 .636.123.882.369s.368.54.368.882c0 .342-.122.636-.368.882-.246.245-.54.368-.882.368zm1.106.994v8.353h-2.196v-8.353h2.196zm1.333 4.184c0-.609.112-1.175.337-1.699.235-.534.55-.994.946-1.379a4.536 4.536 0 013.174-1.266c.62 0 1.202.112 1.747.337a4.274 4.274 0 011.411.929c.406.385.721.845.946 1.379.235.524.352 1.09.352 1.699 0 .61-.117 1.181-.352 1.716-.225.523-.54.978-.946 1.362-.396.385-.866.69-1.411.914a4.531 4.531 0 01-1.747.337c-.62 0-1.203-.112-1.748-.337a4.58 4.58 0 01-1.426-.914 4.373 4.373 0 01-.946-1.362 4.377 4.377 0 01-.337-1.716zm4.457 2.421c.641 0 1.186-.235 1.635-.705.449-.47.673-1.042.673-1.716 0-.684-.224-1.261-.673-1.731a2.177 2.177 0 00-1.635-.705c-.642 0-1.187.235-1.635.705-.449.47-.674 1.047-.674 1.731 0 .674.225 1.246.674 1.716.448.47.993.705 1.635.705zm5.806 1.748v-8.353h2.197v.658c.32-.268.673-.471 1.058-.61a3.839 3.839 0 011.282-.208c.962 0 1.753.31 2.373.93.62.62.93 1.416.93 2.388v5.195h-2.197v-4.874c0-.524-.16-.946-.481-1.266-.31-.321-.726-.481-1.25-.481-.363 0-.695.074-.994.224a1.881 1.881 0 00-.721.609v5.788h-2.197zm8.798-.994l1.09-1.459c.492.32.957.561 1.395.721.438.15.876.225 1.314.225.492 0 .882-.081 1.171-.241.299-.16.448-.374.448-.641a.608.608 0 00-.256-.513c-.16-.128-.422-.219-.786-.273l-1.603-.24c-.823-.128-1.453-.396-1.891-.802-.428-.406-.642-.946-.642-1.619 0-.801.316-1.443.946-1.924.631-.481 1.475-.721 2.533-.721a5.89 5.89 0 011.78.273 6.266 6.266 0 011.651.769l-1.058 1.411a6.366 6.366 0 00-1.315-.593 3.98 3.98 0 00-1.266-.209c-.396 0-.716.075-.962.225-.235.149-.353.347-.353.593 0 .224.086.401.257.529.181.117.475.203.881.256l1.603.241c.813.117 1.438.385 1.876.801.449.417.673.946.673 1.587 0 .396-.096.765-.288 1.107a2.75 2.75 0 01-.754.865 3.62 3.62 0 01-1.154.577 4.91 4.91 0 01-1.459.209 7.597 7.597 0 01-2.132-.289c-.662-.203-1.229-.491-1.699-.865z" fill="#9696A0"/><path d="M47.478 199.73c-1.075 0-2.067-.189-2.976-.567a6.753 6.753 0 01-2.293-1.636c-.636-.696-1.128-1.536-1.477-2.521-.348-.984-.522-2.066-.522-3.247 0-1.257.19-2.408.568-3.452.394-1.045.939-1.931 1.635-2.657a7.182 7.182 0 012.521-1.726c1-.409 2.097-.614 3.293-.614.924 0 1.847.167 2.77.5.924.318 1.681.734 2.272 1.249l-2.135 2.589a5 5 0 00-1.476-.84c-.5-.182-1.075-.273-1.726-.273-1.227 0-2.188.409-2.885 1.227-.68.802-1.067 1.976-1.158 3.52a5.306 5.306 0 011.84-1.227 5.81 5.81 0 012.294-.454c.817 0 1.567.121 2.248.364a5.331 5.331 0 011.749.999c.5.424.886.939 1.158 1.544a4.6 4.6 0 01.409 1.953 4.76 4.76 0 01-.477 2.112 5.007 5.007 0 01-1.272 1.658c-.53.47-1.173.841-1.93 1.113a7.353 7.353 0 01-2.43.386zm-.046-7.267c-.65 0-1.257.129-1.817.386a4.679 4.679 0 00-1.476 1.113c.242.817.644 1.468 1.204 1.953.56.484 1.211.727 1.953.727.772 0 1.408-.197 1.908-.591.514-.409.772-.916.772-1.522a1.81 1.81 0 00-.704-1.476c-.47-.393-1.083-.59-1.84-.59zm14.39 7.267c-1.075 0-2.067-.189-2.976-.567a6.755 6.755 0 01-2.293-1.636c-.636-.696-1.128-1.536-1.477-2.521-.348-.984-.522-2.066-.522-3.247 0-1.257.19-2.408.568-3.452.394-1.045.939-1.931 1.635-2.657a7.183 7.183 0 012.521-1.726c1-.409 2.097-.614 3.293-.614.924 0 1.847.167 2.77.5.924.318 1.681.734 2.272 1.249l-2.135 2.589a4.997 4.997 0 00-1.476-.84c-.5-.182-1.075-.273-1.726-.273-1.227 0-2.188.409-2.885 1.227-.68.802-1.067 1.976-1.158 3.52a5.305 5.305 0 011.84-1.227 5.81 5.81 0 012.294-.454c.817 0 1.567.121 2.248.364a5.332 5.332 0 011.749.999c.5.424.885.939 1.158 1.544.272.591.409 1.242.409 1.953a4.76 4.76 0 01-.477 2.112 5.009 5.009 0 01-1.272 1.658c-.53.47-1.173.841-1.93 1.113a7.353 7.353 0 01-2.43.386zm-.046-7.267c-.65 0-1.257.129-1.817.386a4.677 4.677 0 00-1.476 1.113c.242.817.644 1.468 1.204 1.953.56.484 1.211.727 1.953.727.772 0 1.408-.197 1.908-.591.514-.409.772-.916.772-1.522a1.81 1.81 0 00-.704-1.476c-.47-.393-1.083-.59-1.84-.59zm10.665-.818c-1.136 0-2.044-.371-2.725-1.113-.666-.757-1-1.756-1-2.997 0-1.227.341-2.211 1.022-2.953.682-.757 1.583-1.135 2.703-1.135 1.12 0 2.021.378 2.703 1.135.68.742 1.021 1.726 1.021 2.953 0 1.241-.34 2.24-1.022 2.997-.666.742-1.567 1.113-2.702 1.113zm0-1.907c.5 0 .886-.19 1.158-.568.288-.394.432-.939.432-1.635 0-.667-.144-1.197-.432-1.59a1.362 1.362 0 00-1.158-.591c-.484 0-.87.197-1.158.591-.273.393-.41.923-.41 1.59 0 .696.137 1.241.41 1.635.272.378.658.568 1.158.568zm1.749 9.742h-2.68l9.016-15.897h2.703l-9.04 15.897zm8.38.114c-1.135 0-2.044-.371-2.725-1.113-.666-.757-1-1.756-1-2.998 0-1.226.341-2.21 1.022-2.952.682-.757 1.583-1.136 2.703-1.136 1.12 0 2.021.379 2.703 1.136.68.742 1.022 1.726 1.022 2.952 0 1.242-.341 2.241-1.022 2.998-.667.742-1.567 1.113-2.703 1.113zm0-1.908c.5 0 .886-.189 1.158-.567.288-.394.432-.939.432-1.636 0-.666-.144-1.196-.432-1.589a1.362 1.362 0 00-1.158-.591c-.484 0-.87.197-1.158.591-.273.393-.409.923-.409 1.589 0 .697.136 1.242.409 1.636.272.378.658.567 1.158.567z" fill="#19191D"/><path d="M207.575 201.151l-6.496 6.497-3.42-3.419-5.129 5.129" stroke="#787885" stroke-width="1.197" stroke-linecap="round" stroke-linejoin="round"/><path d="M203.473 201.151h4.103v4.104" stroke="#787885" stroke-width="1.197" stroke-linecap="round" stroke-linejoin="round"/><rect x="34.787" y="164.787" width="186.697" height="4.787" rx="2.394" fill="#46CCEE"/><defs><filter id="filter0_d" x="0" y="236" width="256.271" height="136.594" filterUnits="userSpaceOnUse" color-interpolation-filters="sRGB"><feFlood flood-opacity="0" result="BackgroundImageFix"/><feColorMatrix in="SourceAlpha" values="0 0 0 0 0 0 0 0 0 0 0 0 0 0 0 0 0 0 127 0"/><feOffset dy="11"/><feGaussianBlur stdDeviation="15"/><feColorMatrix values="0 0 0 0 0.603056 0 0 0 0 0.630668 0 0 0 0 0.695833 0 0 0 0.2 0"/><feBlend in2="BackgroundImageFix" result="effect1_dropShadow"/><feBlend in="SourceGraphic" in2="effect1_dropShadow" result="shape"/></filter><filter id="filter1_d" x="0" y="46" width="256.271" height="136.594" filterUnits="userSpaceOnUse" color-interpolation-filters="sRGB"><feFlood flood-opacity="0" result="BackgroundImageFix"/><feColorMatrix in="SourceAlpha" values="0 0 0 0 0 0 0 0 0 0 0 0 0 0 0 0 0 0 127 0"/><feOffset dy="11"/><feGaussianBlur stdDeviation="15"/><feColorMatrix values="0 0 0 0 0.603056 0 0 0 0 0.630668 0 0 0 0 0.695833 0 0 0 0.2 0"/><feBlend in2="BackgroundImageFix" result="effect1_dropShadow"/><feBlend in="SourceGraphic" in2="effect1_dropShadow" result="shape"/></filter><filter id="filter2_d" x="0" y="141" width="256.271" height="136.594" filterUnits="userSpaceOnUse" color-interpolation-filters="sRGB"><feFlood flood-opacity="0" result="BackgroundImageFix"/><feColorMatrix in="SourceAlpha" values="0 0 0 0 0 0 0 0 0 0 0 0 0 0 0 0 0 0 127 0"/><feOffset dy="11"/><feGaussianBlur stdDeviation="15"/><feColorMatrix values="0 0 0 0 0.603056 0 0 0 0 0.630668 0 0 0 0 0.695833 0 0 0 0.2 0"/><feBlend in2="BackgroundImageFix" result="effect1_dropShadow"/><feBlend in="SourceGraphic" in2="effect1_dropShadow" result="shape"/></filter></defs></svg>